<svg xmlns="http://www.w3.org/2000/svg" width="100" height="100" viewBox="0 0 26.458 26.458"><path d="M13.23 2.646A10.584 10.584 0 0 0 2.646 13.23 10.584 10.584 0 0 0 13.23 23.812 10.584 10.584 0 0 0 23.81 13.23 10.584 10.584 0 0 0 13.23 2.646zM7.39 7.73c1.085 2.652 5.528 3.396 5.528 3.396 1.082-4.992 4.93-2.228 5.115-1.87.31.423 1.912-.372 1.912-.372.051.584-1.395 1.22-1.395 1.22l1.55.054c.052.317-1.446.742-1.446.742-.104 6.843-5.89 7.704-5.89 7.704-3.049.531-6.097-.848-6.097-.848 2.015.372 4.392-2.122 4.392-2.122-1.67.396-2.902-.692-3.279-1.08a.249.249 0 0 1-.132-.14s.055.06.132.14c.514.256 2.193-.459 2.193-.459-3.255-.424-3.616-2.917-3.616-2.917 1.394 1.38 2.996 1.22 2.996 1.22-2.17.053-1.963-4.668-1.963-4.668z" fill="#3fb0fe"/></svg>