<svg xmlns="http://www.w3.org/2000/svg" width="500" height="200" viewBox="0 0 132.292 52.917"><path fill="#520" d="M119.387 23.69v22.3H7.622V4.443L11.114 0h3.493L18.1 7.393h6.985l3.493 7.033h3.492l3.493 3.946h6.985l3.493-7.72h6.985l3.493 4.632h10.478l3.493-13.38h6.985l3.493 4.803h3.492l3.493 9.778h10.478l3.493-6.519h3.493l3.492 3.946 1.737-9.469h8.741z"/><path fill="#803300" d="M21.423 25.559v19.388h106.901V8.827l-3.34-3.862h-3.34l-3.342 6.426h-6.68l-3.342 6.115h-3.34l-3.34 3.43h-6.682l-3.34-6.71h-6.682l-3.34 4.026H71.533L68.192 6.62h-6.681l-3.341 4.175h-3.34l-3.34 8.501H41.467l-3.341-5.667h-3.341l-3.34 3.43-1.661-8.232h-8.362z"/><path fill="#f60" d="M0 28.924v23.993h132.292V8.216l-4.134-4.78h-4.135l-4.134 7.954h-8.268l-4.134 7.568h-4.134l-4.134 4.245H90.95l-4.135-8.306h-8.268l-4.134 4.983H62.012L57.878 5.486h-8.27l-4.133 5.168H41.34l-4.134 10.519H24.805L20.67 14.16h-4.135l-4.134 4.245-2.055-10.188H0z"/></svg>