<svg xmlns="http://www.w3.org/2000/svg" width="76.256" height="200" viewBox="0 0 20.176 52.917"><path d="M8.835 1.78h2.507v5.682H8.835z" fill="#fff"/><path d="M8.835 7.462h2.507v5.682H8.835z" fill="#af2311"/><path d="M8.835 13.144h2.507v5.682H8.835z" fill="#fff"/><path d="M8.835 18.826h2.507v5.682H8.835z" fill="#af2311"/><path d="M8.835 24.508h2.507v5.681H8.835z" fill="#fff"/><path d="M8.835 30.19h2.507v5.681H8.835z" fill="#af2311"/><path d="M8.835 35.871h2.507v5.682H8.835z" fill="#fff"/><path d="M8.835 41.553h2.507v5.682H8.835z" fill="#af2311"/><path d="M8.835 47.235h2.507v5.682H8.835z" fill="#fff"/><path transform="matrix(.07817 0 0 .07816 .06 -.71)" fill="#fff" d="M15.947 9.771L-.089 37.547l96.306 55.602L-.09 148.751l16.036 27.776 112.342-64.86 112.343 64.86 16.036-27.776-96.306-55.602 96.306-55.602L240.632 9.77 128.289 74.63z" stroke="#000"/><path fill="#fff" d="M17.327 22.79l-4.28 4.224-6.013-.039-4.224-4.279.04-6.012 4.279-4.224 6.013.04 4.224 4.279z"/><path fill="#af2311" d="M16.825 22.579l-3.983 3.93-5.596-.036-3.93-3.982.036-5.595 3.982-3.93 5.596.036 3.931 3.982z"/><text word-spacing="0" letter-spacing="0" font-size="4.524" font-weight="400" style="line-height:1.25" x="5.438" y="19.58" transform="scale(.90871 1.10046)" font-family="sans-serif" stroke-width=".113"><tspan font-weight="700" x="5.438" y="19.58" style="-inkscape-font-specification:'lato Bold'" font-family="lato" fill="#fff">STOP</tspan></text></svg>