<svg xmlns="http://www.w3.org/2000/svg" width="800" height="140" viewBox="0 0 211.667 37.042"><g transform="matrix(.91754 0 0 .9008 -13.353 -115.752)"><rect fill="#677821" rx="5.053" height="33.203" width="41.834" y="129.59" x="73.72"/><path fill="#241c1c" d="M24.789 158.43h41.085v6.462H24.789z"/><circle r="4.46" cy="165.16" cx="28.702"/><circle fill="#6c5353" r="2.913" cy="165.16" cx="28.702"/><circle r="4.46" cy="165.16" cx="37.349"/><circle fill="#6c5353" r="2.913" cy="165.16" cx="37.349"/><circle r="5.461" cy="164.16" cx="49.909"/><circle fill="#6c5353" r="3.566" cy="164.16" cx="49.909"/><circle r="5.461" cy="164.16" cx="60.497"/><circle fill="#6c5353" r="3.566" cy="164.16" cx="60.497"/><rect fill="#132407" rx="5.485" height="13" width="17.248" y="144.37" x="19.937"/><path fill="#4d4d4d" d="M23.325 132.64l2.655 14.042h6.495l2.692-14.053z"/><path fill="#677821" d="M22.637 157.12h2.728v9.139H14.553l.405-2.767z"/><rect fill="#2d5016" rx="2.981" height="15.703" width="36.556" y="142.95" x="22.547"/><g fill="#677821"><rect rx="2.078" height="27.669" width="17.202" y="130.76" x="48.671"/><rect rx="4.381" height="33.203" width="74.169" y="129.59" x="120.16"/><rect rx="5.053" height="33.203" width="41.834" y="129.59" x="197.51"/></g><g stroke-width=".064"><rect fill="#89a02c" rx="2.246" height="4.634" width="20.981" y="128.6" x="46.844"/><rect fill-opacity=".89" fill="#80e5ff" rx="2.246" height="9.911" width="11.971" y="134.65" x="51.22"/><path fill="#bcd35f" d="M52.25 147.65h10.04v6.822H52.25z"/><rect fill="#80e5ff" rx="2.246" height="9.911" width="11.971" y="134.65" x="78.688"/><rect fill="#80e5ff" rx="2.246" height="9.911" width="11.971" y="134.65" x="97.717"/><text stroke-opacity=".89" stroke-dasharray=".05291667,.05291667" stroke-width=".529" stroke="#677821" fill="#fff" font-family="sans-serif" style="line-height:1.25" word-spacing="0" letter-spacing="0" font-size="13.156" y="149.9" x="123.597"><tspan font-family="Lato" font-weight="700" y="149.9" x="123.597">WELCOME</tspan></text><rect fill="#80e5ff" rx="2.246" height="9.911" width="11.971" y="134.65" x="202.24"/><rect fill="#80e5ff" rx="2.246" height="9.911" width="11.971" y="134.65" x="221.27"/><rect fill="#fff" rx=".45" height=".931" width="66.601" y="151.74" x="123.91"/></g><rect fill="#333" rx=".841" height="4.939" width="11.874" y="128.5" x="23.292"/><g fill="#ffe680"><rect fill="gray" rx=".624" height="2.047" width="11.958" y="157.14" x="63.548"/><rect rx=".645" height="1.802" width="12.357" y="157.27" x="63.348"/><rect rx=".489" height="1.802" width="9.364" y="161.29" x="31.655"/><rect rx=".645" height="1.802" width="12.357" y="162.91" x="49.676"/><rect rx=".577" height="1.769" width="11.064" y="152.82" x="66.045" transform="matrix(.98722 .15934 -.16537 .98623 0 0)"/><rect fill="gray" rx=".624" height="2.047" width="11.958" y="157.14" x="111.35"/><rect rx=".645" height="1.802" width="12.357" y="157.27" x="111.42"/><rect fill="gray" rx=".624" height="2.047" width="11.958" y="157.14" x="189.34"/><rect rx=".645" height="1.802" width="12.357" y="157.27" x="191.06"/><g fill="gray"><path d="M239.35 149.26h5.656v2.047h-5.656z"/><rect rx="1.078" height="2.047" width="20.662" y="157.14" x="224.58"/><rect rx=".636" height="2.047" width="12.184" y="243.19" x="-159.19" transform="rotate(-90)"/></g></g><rect fill="#999" rx="2.078" height="3.095" width="42.505" y="156.61" x="24.607"/><rect fill="#17280b" rx="2.078" height="17.014" width="3.368" y="141.5" x="40.443"/><rect fill="#17280b" rx="2.078" height="17.142" width="3.368" y="141.667" x="31.706"/><circle r="4.46" cy="165.16" cx="79.376"/><circle fill="#6c5353" r="2.913" cy="165.16" cx="79.376"/><circle r="4.46" cy="165.16" cx="109.07"/><circle fill="#6c5353" r="2.913" cy="165.16" cx="109.07"/><rect fill="#999" rx="2.078" height="3.095" width="42.505" y="156.61" x="73.436"/><circle r="4.46" cy="165.16" cx="125.82"/><circle fill="#6c5353" r="2.913" cy="165.16" cx="125.82"/><circle r="4.46" cy="165.16" cx="188.89"/><circle fill="#6c5353" r="2.913" cy="165.16" cx="188.89"/><rect fill="#999" rx="1.816" height="3.095" width="74.5" y="156.61" x="119.88"/><circle r="4.46" cy="165.16" cx="203.17"/><circle fill="#6c5353" r="2.913" cy="165.16" cx="203.17"/><circle r="4.46" cy="165.16" cx="232.87"/><circle fill="#6c5353" r="2.913" cy="165.16" cx="232.87"/><rect fill="#999" rx="2.078" height="3.095" width="42.505" y="156.61" x="197.23"/></g><path d="M54.288 27.663H92.72v4.985H54.29zm42.609 0H164v4.985H96.897zm70.972 0h38.43v4.985h-38.43z"/></svg>