<svg xmlns="http://www.w3.org/2000/svg" width="100" height="100" viewBox="0 0 26.458334 26.458334"><path d="M11.293 0v2.848H8.47v2.849H2.823v2.848H0v2.849h2.823v2.848h2.824v2.848H2.823v5.697h2.824v2.848H8.47v-2.848h2.823v-2.849h2.824v2.849h2.822v2.848h2.824v-2.848h2.823V17.09h-2.823V14.24h2.823v-2.848h2.823V8.545h-2.823V5.697h-5.647V2.848h-2.823V0z" fill="#d45500"/><path d="M12.342.823v2.849H9.52V6.52H3.872V9.37H1.05v2.848h2.823v2.848h2.824v2.848H3.872v5.697h2.824v2.848h2.823V23.61h2.823V20.76h2.824v2.849h2.822v2.848h2.824V23.61h2.823v-5.697h-2.823v-2.849h2.823v-2.848h2.823V9.369h-2.823V6.52h-5.647V3.672h-2.823V.823z" fill="#f60"/></svg>