<svg xmlns="http://www.w3.org/2000/svg" width="100" height="178.085" viewBox="0 0 26.458 47.118"><g transform="translate(0 -249.882)"><rect width="3.175" height="52.917" x="-26.826" y="246.864" rx=".248" ry="1.711" transform="rotate(-14.999 262.52 92.977) scale(.76198)"/><rect ry="1.711" rx=".248" y="227.606" x="95.524" height="52.917" width="3.175" transform="rotate(14.999 -277.638 -21.87) scale(.76198)"/><circle cx="37.204" cy="243.024" r="8.414" transform="translate(-15.12 71.113) scale(.76198)"/><rect width="18.359" height="1.848" x="-110.627" y="240.887" rx="1.827" ry="1.848" transform="matrix(.64148 -.41125 .3846 .6578 -15.12 71.113)"/><rect transform="matrix(-.64067 -.4125 -.38338 .65851 -15.12 71.113)" ry="1.846" rx="1.822" y="200.573" x="-174.23" height="1.846" width="18.303"/><rect transform="matrix(.68763 -.32831 .47054 .59934 -15.12 71.113)" ry="2.029" rx="2.289" y="268.25" x="-154.846" height="2.029" width="22.997"/><rect width="22.758" height="2.019" x="-212.781" y="234.151" rx="2.265" ry="2.019" transform="matrix(-.68597 -.33175 -.4668 .60226 -15.12 71.113)"/><rect width="27.775" height="2.236" x="-203.128" y="303.917" rx="2.765" ry="2.236" transform="matrix(.71184 -.27183 .53378 .54378 -15.12 71.113)"/><rect transform="matrix(-.71067 -.2749 -.53027 .5472 -15.12 71.113)" ry="2.222" rx="2.734" y="273.134" x="-258.367" height="2.222" width="27.465"/><g transform="translate(-.412 -1.064)"><g transform="matrix(-.50629 0 0 .50629 19.8 116.123)" fill="#fff"><rect ry=".498" rx=".62" y="275.928" x="4.792" height="6.897" width="10.67"/><path d="M4.792 281.324c0-.225.301-.406.676-.406H7.44c.375 0 .843.254.677.406l-3.324 3.023v-3.023z"/></g><rect ry=".186" rx=".306" y="254.63" x="9.907" height="3.927" width="6.267"/><g transform="matrix(.52527 0 0 .52527 7.782 109.694)" fill="#fff"><rect width="10.67" height="6.897" x="4.792" y="275.928" rx=".62" ry=".498"/><path d="M4.792 281.34c0-.224.301-.405.676-.405H7.44c.375 0 .843.254.677.406l-3.324 3.023v-3.023z"/></g></g></g></svg>