<svg xmlns="http://www.w3.org/2000/svg" width="100" height="150" viewBox="0 0 26.459 39.688"><path d="M26.46 39.689H0v-1.653h26.46zM1.652 38.036V14.885h23.15v23.15zM26.46 14.885H0v-1.653h26.46z" fill="#1d3ce8"/><g fill="#fcf7fc"><path d="M6.616 11.575h1.653v3.307H6.616zM4.959 9.922h1.653v1.653H4.96zm8.27 0h1.652v1.653h-1.653zm-1.654 1.653h1.653v3.307h-1.653zm3.306-3.306h1.653v1.653h-1.653zm4.963 4.96v1.653h-3.307v-1.654zM18.19 11.575h1.654v1.653H18.19z"/></g><path d="M3.306 38.036V14.885H4.96v23.15z" fill="#2fc8f7"/><path d="M24.806 31.42H1.656v-1.653h23.15zM1.653 13.228h1.653v1.654H1.653zm23.153 8.27H1.656v-1.654h23.15zM1.653 38.035h1.653v1.653H1.653z" fill="#2fc8f7"/><g fill="#fad0a6"><path d="M4.96 13.228h1.652v1.654H4.96zm3.309-1.653h1.653v1.653H8.269zM3.306 9.922H4.96v3.306H3.306z"/><path d="M6.616 11.575v1.653H3.309v-1.653zm4.959-1.653h1.653v1.653h-1.653zm1.653 1.653h1.653v3.307h-1.653zm0-8.269h1.653v6.616h-1.653zm1.653 1.656h1.653V8.27h-1.653zM1.653 6.616h1.653v1.653H1.653zm4.963-4.963h1.653v1.653H6.616zm9.921 9.922h1.654v1.653h-1.654zm3.307-1.653h1.653v4.96h-1.653z"/></g><g fill="#cf2a04"><path d="M6.616 8.269h1.653v3.306H6.616z"/><path d="M8.269 8.269v1.653H1.653V8.269zM6.616 3.306v4.96H3.309v-4.96zM1.653 1.653h1.653v1.653H1.653zm3.31 0h1.653v1.653H4.962zM6.615 0h1.653v1.653H6.616zm4.959 13.228v1.654H8.269v-1.654zm0 0H9.922V9.922h1.653zm0-6.612h1.653v3.306h-1.653zm0-3.31h1.653V4.96h-1.653zm3.306-1.653h1.653v3.306h-1.653z"/><path d="M16.537 1.653v1.653h-3.306V1.653zm-1.656 8.269h1.653v4.96h-1.653zm1.656-1.653h3.307v3.306h-3.307zm3.307-3.31h1.653v4.96h-1.653zm1.653 0h3.306v3.307h-3.306zm0 4.963h1.653v3.306h-1.653zM23.15 0h1.653v4.96H23.15zm1.656 0h1.653v1.653h-1.653z"/></g><path d="M6.616 33.073h3.306v1.653H6.616zm4.959 0h3.306v1.653h-3.306zm4.962 0h3.307v1.653h-3.307zm4.96 0h1.653v1.653h-1.653z" fill="#dc0153"/><g fill="#2fc8f7"><path d="M21.497 26.46h1.653v1.653h-1.653zM6.616 23.15h1.653v4.96H6.616z"/><path d="M11.575 23.15v1.654h-4.96V23.15z"/><path d="M11.575 28.113H9.922v-4.96h1.653z"/><path d="M6.616 28.113V26.46h4.959v1.653zm9.921 0h-3.306v-4.96h3.306zm4.96 0H18.19v-4.96h3.306z"/></g></svg>