<svg xmlns="http://www.w3.org/2000/svg" width="100" height="106" viewBox="0 0 26.46 28.047"><path d="M8.82 22.791v3.504H7.057v-3.504z" fill="maroon"/><g fill="#cf2a04"><path d="M3.527 15.78h3.526v3.5H3.527zm0 3.5h3.526v3.511H3.527zm1.763 3.511h3.527v1.752H5.29z"/><path d="M10.583 26.295H7.057V24.54h3.526z"/><path d="M19.403 28.047H8.82v-1.755h10.583z"/><path d="M22.932 26.295H17.64v-1.752h5.292zM24.693 24.543h-3.526v-1.755h3.526zM3.527 14.027v1.752H1.763v-1.755zm5.293-3.508v5.257H5.293v-5.257zm17.64 7.012v5.257h-3.527V17.53zm-3.53 0v-3.504h1.763v3.504z"/><path d="M21.167 14.027h3.526v1.752h-3.526zm-3.527-1.755h5.29v1.752h-5.29z"/><path d="M19.403 14.027v-3.504h1.764v3.504zm-5.293-3.508h3.527v1.753H14.11zm1.763-7.008v3.504H14.11V3.511zM14.11 1.759V3.51h-1.763V1.755zM7.057.003v1.752H5.293V0zM5.29 3.511v1.752H3.527V3.508zm0 3.504v1.752H3.527V7.012zm1.767 1.752v1.752H5.293V8.764z"/><path d="M17.64 7.015h-3.527V5.26h3.527zm1.763 3.504h-3.526V7.015h3.526zM8.82 8.767h5.29v1.752H8.82zm0 0V5.263h1.764v3.504z"/><path d="M10.583 10.52v1.752H8.82v-1.756zM7.057 7.014V3.511H8.82v3.504zm5.29 0v1.752h-1.763V7.012z"/></g><path d="M12.347 21.036V17.53h1.763v3.505zm5.293 0V17.53h1.763v3.505z" fill="#cf2a04"/><g fill="#fad0a6"><path d="M1.763 7.015v1.752H0V7.012zm10.584-3.504v1.752h-1.764V3.508zM22.93 5.263v1.752h-1.763V5.26zm1.763 5.256v1.753H22.93v-1.756zm-8.82-1.752v1.752H14.11V8.764zm3.53 1.752v1.753H17.64v-1.756zm-5.293 0v1.753h-3.527v-1.756z"/><path d="M17.64 12.272v1.752H8.82v-1.756zm0 12.271v1.752h-7.057V24.54zm-8.82-1.752H7.057V15.78H8.82zm14.11 0h-1.763V15.78h1.763zm-12.347 1.752H8.82V14.027h1.763z"/><path d="M12.347 14.027v1.752h-1.764v-1.755zm8.82 7.009v1.752h-1.764v-1.756zm-10.584 3.507v-1.755h10.584v1.755zm1.764-3.507v1.752h-1.764v-1.756zm3.526-5.257v-1.755h5.29v1.755z"/><path d="M21.167 15.78v1.751h-1.764v-1.755z"/></g><g fill="#fcf7fc"><path d="M12.347 21.036h-1.764v-5.257h1.764zm3.526-5.257h-3.526v-1.755h3.526zm3.53 7.012h-7.056v-1.755h7.056zm0-1.755V17.53h1.764v3.505zm-5.293 0v-5.257h3.527v5.257z"/><path d="M14.11 15.78v1.751h-1.763v-1.755zm5.293 0v1.751H17.64v-1.755z"/></g></svg>