<svg xmlns="http://www.w3.org/2000/svg" xmlns:xlink="http://www.w3.org/1999/xlink" width="100" height="100" viewBox="0 0 26.458 26.458"><defs><linearGradient id="a"><stop offset="0" stop-color="#1a083c"/><stop offset="1" stop-color="#582546"/></linearGradient><linearGradient xlink:href="#a" id="b" x1="4.602" y1="289.52" x2="21.884" y2="276.211" gradientUnits="userSpaceOnUse"/></defs><g transform="matrix(1.54545 0 0 1.53173 -7.362 -423.08)"><rect width="17.12" height="17.274" x="4.764" y="276.211" rx="1.423" ry="1.413" fill="url(#b)"/><g style="line-height:1.25;-inkscape-font-specification:'Lato Heavy'"><path style="-inkscape-font-specification:'Lato Heavy'" d="M8.899 290.614v-11.533h4.205q1.185 0 2.016.222.832.221 1.358.625.525.404.76.982.244.577.244 1.29 0 .388-.11.752-.11.356-.345.673-.236.316-.604.578-.37.253-.887.443 1.13.277 1.671.902.542.618.542 1.591 0 .736-.283 1.37-.282.633-.832 1.108-.54.467-1.341.736-.8.261-1.828.261zm2.652-4.892v2.874h1.867q.525 0 .855-.135.337-.134.526-.348.188-.214.259-.483.07-.27.07-.546 0-.317-.086-.57-.079-.253-.283-.428-.196-.174-.525-.269-.33-.095-.832-.095zm0-1.789h1.38q.44 0 .793-.063.353-.063.596-.222.251-.158.377-.435.133-.277.133-.696 0-.412-.102-.681-.102-.277-.314-.444-.212-.166-.541-.237-.322-.071-.769-.071h-1.553z" fill="#fff" font-weight="900" font-size="15.761" font-family="Lato" letter-spacing="0" word-spacing="0"/></g></g></svg>