<svg xmlns="http://www.w3.org/2000/svg" width="100" height="100" viewBox="0 0 26.458 26.458"><g font-weight="400" font-size="10.583" letter-spacing="0" word-spacing="0" fill="#f99d43"><path style="line-height:1.25" d="M12.93 3.969a8.737 10.096 0 0 1 3.82 3.706h2.922c.255 0 .491.047.712.143.219.094.41.227.571.4a1.534 1.704 0 0 1 .533 1.304c0 .258-.046.504-.14.736a1.944 1.864 0 0 1-.394.595 1.776 1.703 0 0 1-.571.386 1.716 1.646 0 0 1-.711.143h-1.629a8.737 10.096 0 0 1 .153 1.846 8.737 10.096 0 0 1-.155 1.86h1.631a1.73 1.73 0 0 1 1.283.542 1.537 1.708 0 0 1 .533 1.306c0 .257-.046.498-.14.723a1.942 1.863 0 0 1-.394.593 1.81 1.81 0 0 1-.571.39 1.716 1.646 0 0 1-.711.14H16.75a8.737 10.096 0 0 1-3.834 3.707h6.758c.754 0 1.459-.147 2.121-.44a5.55 5.323 0 0 0 1.727-1.187 5.134 5.704 0 0 0 1.18-1.77 5.855 5.616 0 0 0 .433-2.157c0-.68-.123-1.338-.37-1.975a5.887 5.647 0 0 0-1.04-1.732 5.021 5.58 0 0 0 1.04-1.717 6.008 5.763 0 0 0 .37-1.989 5.856 5.617 0 0 0-1.613-3.913 5.45 5.227 0 0 0-1.728-1.202 4.993 4.79 0 0 0-2.12-.438z" font-family="sans-serif"/><path d="M1.323 3.969v3.749l3.67-.043h1.815a5.679 6.31 0 0 1 2.122.439 5.48 6.088 0 0 1 1.74 1.202 5.37 5.37 0 0 1 1.167 1.755c.288.672.432 1.391.432 2.158a5.51 5.51 0 0 1-.432 2.17 4.953 5.503 0 0 1-1.168 1.77 5.508 5.508 0 0 1-1.74 1.187 5.825 6.472 0 0 1-2.12.426H1.322v3.707h5.485c.84 0 1.644-.108 2.414-.323a9.756 10.84 0 0 0 2.183-.942 9.042 10.047 0 0 0 1.842-1.447 8.99 9.99 0 0 0 1.422-1.873 9.116 9.116 0 0 0 .914-2.208 7.472 8.302 0 0 0 .33-2.467c0-.853-.11-1.67-.33-2.454a7.594 8.438 0 0 0-.913-2.208 8.514 9.46 0 0 0-1.423-1.874 8.82 9.8 0 0 0-1.842-1.458 9.313 10.348 0 0 0-2.183-.93 9.495 10.55 0 0 0-2.414-.336z" style="-inkscape-font-specification:Righteous" font-family="Righteous"/></g></svg>