<svg xmlns="http://www.w3.org/2000/svg" width="100" height="100" viewBox="0 0 26.458 26.458"><g transform="matrix(.10673 0 0 .10878 3.145 -.62)"><ellipse fill="#da464f" ry="9.174" rx="57.452" cy="72.585" cx="90.714"/><path fill="#da464f" d="M115.475 39.528l14.873 1.865-9.112 34.168-14.873-1.866z"/><ellipse fill-opacity=".941" fill="#fff" ry="3.821" rx="11.717" cy="71.95" cx="116.039"/><ellipse fill="#da464f" cx="116.039" cy="71.396" rx="11.717" ry="3.356"/><path fill="#da464f" d="M143.954 5.691l12.503 6.868-28.479 33.837-12.503-6.868zM32.506 77.277s4.62 9.302 57.452 9.302c52.833 0 57.453-9.302 57.453-9.302l-10.054 106.395s.327 8.72-47.134 9.302c-47.461.581-47.134-9.302-47.134-9.302zm18.223 126.647h79.833l-4.86 39.902s-3.456 5.103-35.057 5.103c-31.6 0-35.057-5.103-35.057-5.103z"/><path fill="#da464f" d="M45.241 192s13.628 6.725 45.426 6.725c31.798 0 45.425-6.725 45.425-6.725l-5.53 11.924s-3.934 1.525-39.895 1.525c-35.961 0-39.896-1.525-39.896-1.525z"/><g style="line-height:1.25" font-weight="400" font-size="51.901" font-family="Lobster" letter-spacing="0" word-spacing="0" fill="#fff" stroke-width="1.298"><path style="-inkscape-font-specification:Lobster" d="M71.243 133.694l-3.802 17.435q-.836 3.878-2.002 6.69-1.165 2.84-2.711 4.69-1.52 1.85-3.472 2.736-1.952.887-4.36.887-1.9 0-3.446-.507-1.546-.507-2.66-1.444-1.09-.938-1.699-2.256-.608-1.292-.608-2.863 0-1.52.532-2.839.558-1.292 1.496-2.255.937-.989 2.204-1.546 1.293-.558 2.763-.558 2.002 0 3.193.963 1.216.963 1.216 2.61 0 1.217-.557 1.977-.482-.633-1.293-.988-.785-.355-1.672-.355-.786 0-1.445.254-.633.278-1.115.76-.456.507-.71 1.191-.253.684-.253 1.52 0 .811.254 1.496.253.71.684 1.19.456.508 1.064.786.634.28 1.369.28 1.799 0 3.091-1.623 1.293-1.596 2.002-4.764l2.585-11.48h-.202q-1.42 1.951-3.422 3.016-1.976 1.039-4.358 1.039-2.307 0-4.157-.913-1.85-.937-3.167-2.635-1.293-1.724-2.002-4.156-.71-2.433-.71-5.424 0-2.889.659-5.524.659-2.661 1.875-4.942 1.217-2.28 2.915-4.13 1.723-1.85 3.826-3.169 2.129-1.317 4.562-2.027 2.433-.71 5.119-.71 2.205 0 3.979.507 1.774.482 3.016 1.42 1.241.912 1.9 2.255.66 1.318.66 2.965 0 1.115-.305 2.027-.279.913-.811 1.572-.507.633-1.242.988t-1.596.355q-.963 0-1.825-.406-.862-.43-1.444-1.216.456-.304.861-.811.406-.532.71-1.166.304-.659.481-1.368.178-.71.178-1.42 0-1.57-.913-2.407-.887-.862-2.56-.862-1.545 0-3.04.735-1.496.71-2.839 1.977-1.317 1.267-2.458 3.041-1.14 1.749-1.977 3.827-.81 2.052-1.267 4.384-.456 2.306-.456 4.714 0 3.928 1.217 5.98 1.241 2.028 3.598 2.028 2.839 0 4.942-2.915 2.129-2.94 3.472-8.667zm30.056 12.392q-.735 2.104-1.597 3.65-.862 1.546-1.8 2.61-.912 1.064-1.875 1.723-.963.66-1.875 1.014-.912.355-1.749.481-.836.127-1.52.127-2.23 0-3.548-1.216-1.318-1.242-1.597-3.7-.988 1.596-2.002 2.56-1.013.962-2.002 1.494-.988.533-1.926.685-.937.177-1.748.177-1.166 0-2.18-.355-1.013-.354-1.774-1.115-.735-.76-1.165-1.926-.431-1.166-.431-2.813 0-.71.101-1.546.102-.861.304-1.85l3.523-16.65h7.476l-3.725 17.639q-.153.81-.153 1.47 0 .887.33 1.52.33.608 1.216.608.76 0 1.394-.33.634-.354 1.14-.962.533-.608.913-1.445.405-.861.71-1.85l3.522-16.65h7.476l-3.725 17.639q-.127.43-.178.861-.05.406-.05.811 0 1.09.506 1.52.533.406 1.622.406.76 0 1.394-.33.66-.354 1.191-.962.532-.608.938-1.445.405-.861.684-1.85z"/><path style="-inkscape-font-specification:Lobster" d="M115.212 146.086q-.735 2.104-1.648 3.65-.887 1.546-1.875 2.61-.963 1.064-2.002 1.723-1.014.66-1.977 1.014-.963.355-1.85.481-.861.127-1.546.127-1.165 0-2.18-.355-1.013-.354-1.773-1.115-.735-.76-1.166-1.926-.43-1.166-.43-2.813 0-.71.1-1.546.102-.861.305-1.85l5.55-26 7.679-1.04-5.956 28.029q-.127.43-.177.861-.026.406-.026.811 0 1.09.507 1.52.507.406 1.597.406.76 0 1.47-.33.735-.354 1.343-.962t1.09-1.445q.481-.861.785-1.85z"/><path style="-inkscape-font-specification:Lobster" d="M108.344 168.362l8.667-40.852h7.476l-.836 3.903q1.14-.963 2.61-1.596 1.47-.634 3.446-.634 1.318 0 2.484.43 1.166.406 2.002 1.37.862.937 1.343 2.508.507 1.571.507 3.878 0 1.748-.254 3.801-.228 2.027-.81 4.08-.583 2.027-1.546 3.928-.938 1.875-2.357 3.32-1.42 1.444-3.37 2.331-1.927.862-4.436.862-.988 0-1.723-.152-.735-.152-1.267-.405-.507-.254-.862-.583-.33-.355-.557-.71l-2.686 12.646zm11.353-18.373q.152.43.608.811.482.38 1.369.38 1.368 0 2.433-.684 1.064-.71 1.875-1.85.811-1.166 1.368-2.636.558-1.47.913-3.015.355-1.546.507-3.041.177-1.521.177-2.737 0-1.496-.279-2.357-.278-.862-.684-1.293-.38-.43-.836-.532-.456-.127-.811-.127-.887 0-1.876.66-.963.633-1.697 1.9z"/></g></g></svg>