<svg xmlns="http://www.w3.org/2000/svg" width="100" height="100" viewBox="0 0 26.458 26.458"><g fill="#34577f"><g fill-opacity=".941"><path d="M9.559 11.632c3.88 3.81 5.885-1.015 5.527-.134-.933 2.295-3.78 2.644-5.932.53-2.152-2.112-1.753-4.804.54-5.824.986-.438-4.017 1.616-.135 5.428z"/><path d="M6.9 14.196c6.017 5.908 9.124-1.573 8.57-.208-1.446 3.558-5.86 4.1-9.197.823-3.336-3.276-2.718-7.448.839-9.03 1.527-.68-6.228 2.506-.211 8.414z"/><path d="M3.64 17.165c7.764 7.623 11.774-2.03 11.058-.268-1.865 4.591-7.562 5.29-11.867 1.062-4.304-4.227-3.507-9.612 1.082-11.653 1.971-.876-8.036 3.234-.272 10.858z"/></g><g style="line-height:1.25"><path style="-inkscape-font-specification:'Yu Gothic Bold'" d="M25.175 8.659l-2.888 9.99q-.919 3.179-5.317 3.179-.17 0-.465-.026-.32-.027-.486-.035l.267-1.594q.322.06.649.06.98 0 1.533-.441.505-.408.758-1.283l2.848-9.85zM26.46 4.63l-.66 2.288h-3.345l.662-2.288z" font-weight="700" font-family="Yu Gothic" font-size="6.083" letter-spacing="0" word-spacing="0"/></g></g></svg>