<svg xmlns="http://www.w3.org/2000/svg" width="100" height="100" viewBox="0 0 26.458 26.458"><path style="line-height:normal;font-variant-ligatures:normal;font-variant-position:normal;font-variant-caps:normal;font-variant-numeric:normal;font-variant-alternates:normal;font-feature-settings:normal;text-indent:0;text-align:start;text-decoration-line:none;text-decoration-style:solid;text-decoration-color:#000;text-transform:none;text-orientation:mixed;shape-padding:0;isolation:auto;mix-blend-mode:normal" d="M15.712 1.334c-3.53-.137-7.68 1.017-10.31 4.001l-.022.027C4.051 7.06 3.735 8.724 4.124 10.215c.388 1.491 2.026 2.78 3.206 3.965 1.69 1.253 1.745 1.603 2.622 2.367-3.268 1.111-5.69 2.95-5.916 4.783-.248 2 1.295 3.805 3.58 3.805 1.668 0 3.398-.487 4.67-1.358.635-.435 1.16-.974 1.467-1.62a2.822 2.822 0 0 0 .109-2.161c-.372-1.068-1.31-1.998-2.3-2.936l3.05-.783c.805-.17 1.15-1.316.345-1.145l-4.363.932c-1.003-.884-2.065-1.767-2.98-2.686-1.114-1.118-1.984-2.27-2.29-3.442-.304-1.167-.109-2.38 1.043-3.858 2.317-2.617 6.096-3.697 9.292-3.572 1.602.062 3.047.427 4.045.992.997.564 1.526 1.266 1.548 2.124.035 1.397-.429 2.235-1.141 2.836-.712.6-1.73.943-2.798 1.108-2.135.33-3.751.051-4.357-.06-.605-.11-.085.776.765 1.005.85.228 1.37.587 3.789.214 1.209-.187 2.456-.577 3.422-1.392.967-.814 1.598-2.069 1.556-3.742-.034-1.32-.914-2.398-2.152-3.099-1.24-.7-2.859-1.09-4.624-1.158zM10.26 17.379l.12.107c1.129 1.033 1.393 2.022 1.69 2.876.173.494.324.96.131 1.367-.193.407-.533.933-1.036 1.278-1.008.69-1.53.957-2.933.957-1.644 0-2.53-1.093-2.356-2.497.171-1.379.948-3.117 4.384-4.088z" color="#000" font-weight="400" font-family="sans-serif" white-space="normal" overflow="visible" fill="#cc669f" fill-opacity=".941"/></svg>