<svg xmlns="http://www.w3.org/2000/svg" width="100" height="100" viewBox="0 0 26.458 26.458"><g transform="matrix(4.1948 0 0 3.58826 -35.68 -1001.446)"><rect fill="#ff990f" ry="1.413" rx="1.423" y="276.211" x="4.764" height="17.274" width="17.12" transform="matrix(.36842 0 0 .42687 6.75 161.183)"/><g fill="#fff"><g transform="matrix(.22285 0 0 .2582 8.708 212.158)"><path d="M11.987 263.317h3.194v10.682h-3.194z" stroke-width="1.032" stroke="#000"/><ellipse stroke-width="1.032" stroke="#000" cx="13.584" cy="264.345" rx="2.681" ry="2.705"/><path d="M12.501 265.754h2.164v8.804h-2.164z"/></g><g transform="matrix(.15758 .18421 -.15618 .18258 52.377 230.228)"><path d="M11.987 263.317h3.194v10.682h-3.194z" stroke-width="1.032" stroke="#000"/><ellipse stroke-width="1.032" stroke="#000" ry="2.705" rx="2.681" cy="264.345" cx="13.584"/><path d="M12.501 265.754h2.164v8.804h-2.164z"/></g><g transform="matrix(0 .26052 -.22087 0 72.012 279.095)"><path d="M11.987 263.317h3.194v10.682h-3.194z" stroke-width="1.032" stroke="#000"/><ellipse stroke-width="1.032" stroke="#000" cx="13.584" cy="264.345" rx="2.681" ry="2.705"/><path d="M12.501 265.754h2.164v8.804h-2.164z"/></g><g transform="matrix(.15758 -.18421 .15618 .18258 -33.187 235.232)"><path d="M11.987 263.317h3.194v10.682h-3.194z" stroke-width="1.032" stroke="#000"/><ellipse stroke-width="1.032" stroke="#000" ry="2.705" rx="2.681" cy="264.345" cx="13.584"/><path d="M12.501 265.754h2.164v8.804h-2.164z"/></g><g transform="matrix(0 -.26052 .22087 0 -48.693 286.23)"><path d="M11.987 263.317h3.194v10.682h-3.194z" stroke-width="1.032" stroke="#000"/><ellipse stroke-width="1.032" stroke="#000" cx="13.584" cy="264.345" rx="2.681" ry="2.705"/><path d="M12.501 265.754h2.164v8.804h-2.164z"/></g><path d="M10.288 281.45l.924 1.08.792.128-1.375-1.607z"/><path d="M11.494 280.777v1.741l.503-.056-.02-1.685z"/><path d="M12.842 281.051l-1.377 1.61h.688l.488-.578z"/></g><rect width="5.75" height="3.533" x="8.784" y="282.71" rx=".647" ry=".518"/><path fill-opacity=".941" fill="#3f3f3f" d="M9.661 283.024h3.997c.321 0 .58.105.58.236v1.709c0 .13-.26-.018-.58-.042l-3.997-.293c-.32-.023-.58-.105-.58-.236v-1.138c0-.13.259-.236.58-.236z"/><g style="line-height:1.25"><path style="-inkscape-font-specification:'Lato Heavy'" d="M10.43 283.626q-.018.047-.039.07-.02.024-.052.024-.028 0-.061-.027-.032-.03-.074-.065-.04-.035-.093-.063-.053-.03-.121-.03-.117 0-.175.081-.056.079-.056.214 0 .087.034.144.035.057.09.098.057.042.128.077.072.033.148.077.075.041.146.098.072.057.128.146.056.088.09.216.035.126.035.305 0 .198-.043.371t-.125.303q-.081.128-.202.202-.12.073-.272.073-.083 0-.17-.027-.087-.028-.168-.077-.081-.051-.153-.12-.07-.069-.124-.153l.123-.311q.014-.035.038-.057.025-.022.053-.022.037 0 .074.038l.085.082q.048.046.11.083.06.037.145.037.113 0 .175-.079.063-.08.063-.253 0-.1-.034-.163-.035-.063-.091-.104-.056-.042-.127-.073-.071-.032-.146-.069-.075-.04-.147-.094-.071-.057-.128-.148-.055-.092-.09-.228-.034-.137-.034-.338 0-.161.04-.315.041-.153.12-.273.079-.12.193-.19.115-.073.262-.073.083 0 .16.021.079.02.149.061.07.04.13.097.062.055.11.126zm.19-.582h.334q.054 0 .089.04.034.039.049.104l.347 1.533q.023.1.047.218t.045.248q.017-.13.04-.248t.045-.218l.344-1.533q.013-.055.048-.099.036-.045.088-.045h.337l-.719 2.864h-.376zm2.73 2.385q.086 0 .153-.024.066-.023.125-.063v-.434h-.177q-.04 0-.062-.034-.022-.033-.022-.084v-.366h.637v1.21q-.068.08-.143.139-.074.057-.16.094-.083.037-.179.055-.094.018-.204.018-.197 0-.364-.11-.167-.112-.29-.307-.122-.197-.192-.464-.069-.27-.069-.584 0-.32.067-.588.066-.27.189-.464.124-.194.299-.302.176-.109.392-.109.112 0 .21.03.099.03.181.08.084.052.153.122.069.071.123.154l-.12.293q-.018.041-.043.065-.023.023-.051.023-.037 0-.077-.04-.049-.046-.093-.08-.043-.035-.089-.057-.045-.021-.095-.031-.05-.01-.114-.01-.116 0-.21.066-.093.065-.16.185-.065.12-.1.29-.036.166-.036.373 0 .228.039.405.04.177.108.299.07.122.165.186.096.063.21.063z" font-weight="900" font-size="3.11" font-family="Lato" letter-spacing="0" word-spacing="0" fill="#fff"/></g></g></svg>