<svg xmlns="http://www.w3.org/2000/svg" width="200" height="250" viewBox="0 0 52.917 66.146"><path fill="#37121c" d="M0 0h52.917v66.146H0z"/><text style="line-height:1.25" x="183.027" y="165.715" transform="rotate(45 278.666 -115.427)" font-weight="400" font-size="10.583" font-family="sans-serif" letter-spacing="0" word-spacing="0" stroke-width=".265"><tspan x="183.027" y="165.715" style="text-align:start" fill="#d4e0e5">Slippery</tspan><tspan x="183.027" y="178.945" style="text-align:start" fill="#d4e0e5">Slope</tspan></text><path fill="#37121c" d="M0 0h52.917v66.146H0z"/><text style="line-height:1.25" x="26.191" y="247.589" font-weight="400" font-size="8.166" font-family="sans-serif" letter-spacing="0" word-spacing="0" stroke-width=".204" transform="translate(0 -230.854)"><tspan x="27.299" y="247.589" style="text-align:center" text-anchor="middle" fill="#d4e0e5">Slippery </tspan><tspan x="26.191" y="257.796" style="text-align:center" text-anchor="middle" fill="#d4e0e5">Slope</tspan></text><path d="M43.03 13.761l-.707-1.432-1.58-.23 1.144-1.115-.27-1.574 1.413.743 1.414-.743-.27 1.574 1.144 1.115-1.58.23z" fill="#d4e0e5" stroke="#d4e0e5" stroke-width=".265"/><path d="M4.893 42.492s10.156-6.013 19.778 8.152c9.621 14.165 23.252 4.945 23.252 4.945" fill="none" stroke="#d4e0e5" stroke-width="3.969" stroke-dashoffset="39.688"/></svg>