<svg width="99.999" height="99.999" viewBox="0 0 26.458 26.458" xmlns="http://www.w3.org/2000/svg"><g transform="translate(-23.986 -37.68) scale(.3271)" fill="#2d3184"><circle cx="113.77" cy="155.64" r="40.443" fill="#634b99"/><path d="M119.857 129.535a15.085 15.085 0 0 0-12.955 6.433 15.085 15.085 0 0 0 1.124 18.676L93.421 179.81c-.457.787-.102 1.934-.102 1.934s1.198-.061 1.78-.761l18.611-22.37a15.085 15.085 0 0 0 17.923-5.364 15.085 15.085 0 0 0-3.725-21.005 15.085 15.085 0 0 0-8.051-2.709z"/><path d="M119.86 174.127a15.085 2.201 0 0 0-12.955.939 15.085 2.201 0 0 0 1.125 2.725l-14.605 3.672c-.458.115-.103.282-.103.282s1.198-.009 1.781-.111l18.611-3.264a15.085 2.201 0 0 0 17.923-.783 15.085 2.201 0 0 0-3.725-3.065 15.085 2.201 0 0 0-8.05-.395z" opacity=".4"/></g></svg>