<svg xmlns="http://www.w3.org/2000/svg" width="100" height="85.132" viewBox="0 0 26.458208 22.524483"><g transform="matrix(1.09988 0 0 1.08608 -.146 -303.815)" fill="none" stroke="#252525" stroke-width=".723"><ellipse cy="285.941" cx="6.799" rx="3.236" ry="3.192"/><ellipse cx="17.521" cy="284.355" rx="4.317" ry="4.257"/><path d="M9.883 297.937c.026.579.283 1.145.702 1.545.419.401.995.632 1.575.632s1.156-.23 1.575-.632c.419-.4.676-.966.702-1.545a2.286 2.286 0 0 0-.129-.863m-4.425 1.014a7.027 7.027 0 0 1 1.282-4.093 7.027 7.027 0 0 1 3.434-2.568 7.026 7.026 0 0 1 4.287-.073 7.027 7.027 0 0 1 3.52 2.45 7.029 7.029 0 0 1 1.42 4.133m-23.333 0a7.067 7.067 0 0 1 2.082-4.407 7.067 7.067 0 0 1 4.454-1.978 7.067 7.067 0 0 1 4.665 1.41 7.067 7.067 0 0 1 2.614 4.112c.06.285.104.573.129.863"/><ellipse cy="284.355" cx="17.521" rx="4.317" ry="4.257"/></g></svg>