<svg xmlns="http://www.w3.org/2000/svg" width="100.005" height="100.056" viewBox="0 0 26.459761 26.473044"><path d="M12.143-44.16c.318 0 13.81 28.316 14.066 28.503.257.186 31.356 4.268 31.454 4.57.098.302-22.662 21.883-22.76 22.185-.098.303 5.63 31.14 5.373 31.327-.257.187-27.815-14.79-28.133-14.79-.318 0-27.876 14.977-28.133 14.79-.257-.187 5.471-31.024 5.373-31.327-.098-.302-22.858-21.883-22.76-22.185.098-.302 31.196-4.384 31.453-4.57.258-.187 13.749-28.502 14.067-28.502z" transform="matrix(.28146 0 0 .2955 9.812 13.492)" fill="none" stroke="#252525" stroke-width="3"/></svg>