<svg xmlns="http://www.w3.org/2000/svg" width="100" height="100" viewBox="0 0 26.458 26.458"><g transform="translate(0 -270.542)"><rect width="26.458" height="26.458" x=".026" y="270.542" rx="2" ry="2"/><g fill="#fff"><g transform="matrix(.36864 0 0 .4355 16.593 166.11)"><rect ry="1" rx=".657" y="273.748" x="-9.038" height="20.647" width="2.633"/><rect width="2.229" height="8.604" x="273.748" y="-.816" rx=".556" ry=".417" transform="rotate(90)"/><rect transform="rotate(90)" ry=".417" rx=".556" y="-.816" x="292.165" height="8.604" width="2.229"/></g><g transform="matrix(-.36864 0 0 .4355 20.342 166.11)"><rect width="2.633" height="20.647" x="-9.038" y="273.748" rx=".657" ry="1"/><rect transform="rotate(90)" ry=".417" rx=".556" y="-.816" x="273.748" height="8.604" width="2.229"/><rect width="2.229" height="8.604" x="292.165" y="-.816" rx=".556" ry=".417" transform="rotate(90)"/></g><path d="M5.252 279.31h4.927v4.17" fill="none" stroke="#fff" stroke-width=".528" transform="matrix(.84648 0 0 1 9.796 -.067)"/><path d="M17.589 283.084h1.648l-.824 1.301z" paint-order="stroke fill markers"/><g transform="matrix(.96625 0 0 .96625 -2.942 3.48)"><circle r="1.436" cy="285.255" cx="6.737"/><circle cx="14.752" cy="285.353" r="1.436"/><circle cx="10.744" cy="285.255" r="1.436"/></g></g></g></svg>