<svg xmlns="http://www.w3.org/2000/svg" width="100" height="100" viewBox="0 0 26.458 26.458"><g transform="translate(0 -270.542)"><rect width="26.458" height="26.458" x=".026" y="270.542" rx="2" ry="2"/><g fill="#fff"><g transform="matrix(.84648 0 0 1 8.951 -.3)"><rect width="2.633" height="20.647" x="-9.038" y="273.748" rx=".657" ry="1"/><rect transform="rotate(90)" ry=".417" rx=".556" y="-.816" x="273.748" height="8.604" width="2.229"/><rect width="2.229" height="8.604" x="292.165" y="-.816" rx=".556" ry=".417" transform="rotate(90)"/></g><g transform="matrix(-.84648 0 0 1 17.56 -.3)"><rect ry="1" rx=".657" y="273.748" x="-9.038" height="20.647" width="2.633"/><rect width="2.229" height="8.604" x="273.748" y="-.816" rx=".556" ry=".417" transform="rotate(90)"/><rect transform="rotate(90)" ry=".417" rx=".556" y="-.816" x="292.165" height="8.604" width="2.229"/></g><g transform="matrix(.84648 0 0 1 9.93 -.668)"><ellipse cx="3.929" cy="284.439" rx="7.262" ry="6.147"/><g fill="#000"><g transform="translate(-.325 .168)"><ellipse cx=".386" cy="281.064" rx=".829" ry=".702"/><ellipse ry=".702" rx=".829" cy="281.064" cx="3.227"/><ellipse cx="5.911" cy="281.064" rx=".829" ry=".702"/><ellipse ry=".702" rx=".829" cy="281.064" cx="8.121"/></g><g transform="translate(-.325 2.306)"><ellipse ry=".702" rx=".829" cy="281.064" cx=".386"/><ellipse cx="3.227" cy="281.064" rx=".829" ry=".702"/><ellipse ry=".702" rx=".829" cy="281.064" cx="5.911"/><ellipse cx="8.121" cy="281.064" rx=".829" ry=".702"/></g><g transform="translate(-.325 4.444)"><ellipse cx=".386" cy="281.064" rx=".829" ry=".702"/><ellipse ry=".702" rx=".829" cy="281.064" cx="3.227"/><ellipse cx="5.911" cy="281.064" rx=".829" ry=".702"/><ellipse ry=".702" rx=".829" cy="281.064" cx="8.121"/></g><g transform="translate(-.325 6.582)"><ellipse ry=".702" rx=".829" cy="281.064" cx=".386"/><ellipse cx="3.227" cy="281.064" rx=".829" ry=".702"/><ellipse ry=".702" rx=".829" cy="281.064" cx="5.911"/><ellipse cx="8.121" cy="281.064" rx=".829" ry=".702"/></g></g></g></g></g></svg>