<svg xmlns="http://www.w3.org/2000/svg" width="100" height="100" viewBox="0 0 26.458 26.458"><g transform="translate(0 -270.542)"><rect width="26.458" height="26.458" x=".026" y="270.542" rx="2" ry="2"/><g fill="#fff"><g transform="matrix(.84648 0 0 1 8.951 -.3)"><rect width="2.633" height="20.647" x="-9.038" y="273.748" rx=".657" ry="1"/><rect transform="rotate(90)" ry=".417" rx=".556" y="-.816" x="273.748" height="8.604" width="2.229"/><rect width="2.229" height="8.604" x="292.165" y="-.816" rx=".556" ry=".417" transform="rotate(90)"/></g><g transform="matrix(-.84648 0 0 1 17.56 -.3)"><rect ry="1" rx=".657" y="273.748" x="-9.038" height="20.647" width="2.633"/><rect width="2.229" height="8.604" x="273.748" y="-.816" rx=".556" ry=".417" transform="rotate(90)"/><rect transform="rotate(90)" ry=".417" rx=".556" y="-.816" x="292.165" height="8.604" width="2.229"/></g></g><g fill="#fff"><path d="M13.468 286.049h3.93l-1.965-2.986zM9.114 286.049h3.93l-1.965-2.986zM4.76 286.049h3.93l-1.965-2.986zM17.822 286.049h3.93l-1.965-2.986z"/></g></g></svg>