<svg xmlns="http://www.w3.org/2000/svg" width="100" height="100" viewBox="0 0 26.458 26.458"><g transform="translate(0 -270.542)"><rect width="26.458" height="26.458" x=".026" y="270.542" rx="2" ry="2"/><g fill="#fff"><g transform="matrix(.84648 0 0 1 8.951 -.3)"><rect width="2.633" height="20.647" x="-9.038" y="273.748" rx=".657" ry="1"/><rect transform="rotate(90)" ry=".417" rx=".556" y="-.816" x="273.748" height="8.604" width="2.229"/><rect width="2.229" height="8.604" x="292.165" y="-.816" rx=".556" ry=".417" transform="rotate(90)"/></g><g transform="matrix(-.84648 0 0 1 17.56 -.3)"><rect ry="1" rx=".657" y="273.748" x="-9.038" height="20.647" width="2.633"/><rect width="2.229" height="8.604" x="273.748" y="-.816" rx=".556" ry=".417" transform="rotate(90)"/><rect transform="rotate(90)" ry=".417" rx=".556" y="-.816" x="292.165" height="8.604" width="2.229"/></g><path d="M6.474 278.425l3.424 1.003c2.131-.46 4.177-1.313 6.147-2.205l3.993 1.202v10.958l-3.993-1.804-6.147 2.74-3.424-.936z"/><path d="M.287 279.962v10.89M7.55 277.757v10.356" fill="none" stroke="#000" stroke-width=".144" transform="matrix(.84648 0 0 1 9.655 -.534)"/></g></g></svg>