<svg xmlns="http://www.w3.org/2000/svg" width="100" height="100" viewBox="0 0 26.458 26.458"><g transform="translate(0 -270.542)"><rect width="26.458" height="26.458" x=".026" y="270.542" rx="2" ry="2"/><g fill="#fff"><g transform="matrix(.7043 0 0 .7043 7.829 82.834)"><circle cx="6.737" cy="285.255" r="1.436"/><circle r="1.436" cy="285.353" cx="14.752"/><circle r="1.436" cy="285.255" cx="10.744"/></g><g aria-label="x," style="line-height:1.25;-inkscape-font-specification:Lato" font-weight="400" font-size="4.825" font-family="Lato" letter-spacing="0" word-spacing="0" stroke-width=".121"><path d="M7.482 283.38l-.898-1.3h.45q.058 0 .084.018.027.018.048.053l.653 1q.024-.073.069-.147l.574-.843q.026-.037.053-.058.026-.024.066-.024h.432l-.899 1.275.936 1.394h-.451q-.058 0-.092-.029-.032-.031-.053-.068l-.672-1.046q-.018.076-.055.137l-.622.909q-.026.037-.058.068-.029.03-.081.03h-.42zM9.376 284.424q0-.06.02-.113.025-.055.064-.095.042-.042.1-.066.058-.023.127-.023.079 0 .14.028.062.03.102.082.042.05.063.119.021.066.021.145 0 .118-.034.247-.034.127-.097.25-.064.127-.158.246-.093.118-.211.218l-.08-.076q-.034-.032-.034-.074 0-.034.037-.071.027-.029.066-.08.042-.046.085-.11.042-.063.076-.14.037-.076.053-.163H9.68q-.068 0-.123-.023-.056-.024-.098-.066-.04-.045-.063-.103-.021-.06-.021-.132z" style="-inkscape-font-specification:Lato"/></g></g><g fill="none" stroke="#fff" stroke-width="1.639" stroke-linecap="round" stroke-linejoin="round" stroke-miterlimit="0"><path d="M8.577 273.547s-6.357-.753-6.357 9.922c0 10.475 6.357 9.923 6.357 9.923M17.934 273.547s6.357-.753 6.357 9.922c0 10.475-6.357 9.923-6.357 9.923" paint-order="stroke fill markers"/></g></g></svg>