<svg xmlns="http://www.w3.org/2000/svg" width="100" height="100" viewBox="0 0 26.458 26.458"><g transform="translate(0 -270.542)"><rect width="26.458" height="26.458" x=".026" y="270.542" rx="2" ry="2"/><g fill="#fff" stroke="#fff" stroke-linecap="round" stroke-linejoin="round"><path stroke-width=".8435887200000001" paint-order="stroke fill markers" d="M17.039 283.739v.064H9.472v-.064z"/><path stroke-width=".8435887200000001" paint-order="stroke fill markers" d="M13.288 287.555h-.064v-7.567h.064z"/><path stroke-width=".57861534" paint-order="stroke fill markers" d="M13.143 281.564l-.107.107-1.065-1.065.107-.107z"/><path stroke-width=".62998773" paint-order="stroke fill markers" d="M13.203 279.987l-.114.115-1.177-1.176.115-.115z"/><path stroke-width=".57861534" paint-order="stroke fill markers" d="M13.263 281.564l.107.107 1.065-1.065-.107-.107z"/><path stroke-width=".62998773" paint-order="stroke fill markers" d="M13.203 279.987l.115.115 1.176-1.176-.115-.115z"/><path stroke-width=".57861534" paint-order="stroke fill markers" d="M13.347 285.978l.107-.108 1.066 1.066-.107.107z"/><path stroke-width=".62998773" paint-order="stroke fill markers" d="M13.287 287.554l.115-.115 1.177 1.177-.115.115z"/><g><path stroke-width=".57861534" paint-order="stroke fill markers" d="M13.228 285.978l-.107-.108-1.066 1.066.107.107z"/><path stroke-width=".62998773" paint-order="stroke fill markers" d="M13.288 287.554l-.115-.115-1.176 1.177.114.115z"/></g><g><path stroke-width=".48848834" paint-order="stroke fill markers" d="M12.568 283.983l.097.097-.835.835-.097-.097z"/><path stroke-width=".57861534" paint-order="stroke fill markers" d="M11.049 283.863l.107.107-1.066 1.065-.107-.107z"/><path stroke-width=".62998773" paint-order="stroke fill markers" d="M9.472 283.803l.115.114-1.176 1.177-.115-.115z"/><g><path stroke-width=".48848834" paint-order="stroke fill markers" d="M12.568 283.623l.097-.098-.835-.835-.097.098z"/><path stroke-width=".57861534" paint-order="stroke fill markers" d="M11.049 283.743l.107-.107-1.066-1.065-.107.107z"/><path stroke-width=".62998773" paint-order="stroke fill markers" d="M9.472 283.803l.115-.115-1.176-1.176-.115.115z"/></g></g><g><path stroke-width=".48848834" paint-order="stroke fill markers" d="M13.944 283.559l-.098-.098.835-.835.098.098z"/><path stroke-width=".57861534" paint-order="stroke fill markers" d="M15.462 283.68l-.107-.108 1.066-1.065.107.107z"/><path stroke-width=".62998773" paint-order="stroke fill markers" d="M17.039 283.739l-.115-.115 1.177-1.176.114.115z"/><g><path stroke-width=".48848834" paint-order="stroke fill markers" d="M13.944 283.919l-.098.097.835.835.098-.097z"/><path stroke-width=".57861534" paint-order="stroke fill markers" d="M15.462 283.798l-.107.108 1.066 1.065.107-.107z"/><path stroke-width=".62998773" paint-order="stroke fill markers" d="M17.039 283.739l-.115.114 1.177 1.177.114-.115z"/></g></g></g><g><g fill="none" stroke="#fff" stroke-linecap="round"><path d="M5.118 279.208s-.24 4.108-3.906 4.108M5.118 287.425s-.24-4.109-3.906-4.109" stroke-width="1.259"/><path d="M9.378 273.547s-4.694-.753-4.694 9.922c0 10.475 4.694 9.923 4.694 9.923" stroke-width="1.559" stroke-linejoin="round" stroke-miterlimit="0" paint-order="stroke fill markers"/><g stroke-width="1.259"><path d="M5.118 279.208s-.24 4.108-3.906 4.108M5.118 287.425c0-.05-.24-5.329-3.906-4.109"/></g><g><path d="M21.393 279.208s.24 4.108 3.906 4.108M21.393 287.425s.24-4.109 3.906-4.109" stroke-width="1.259"/><path d="M17.133 273.547s4.694-.753 4.694 9.922c0 10.475-4.694 9.923-4.694 9.923" stroke-width="1.559" stroke-linejoin="round" stroke-miterlimit="0" paint-order="stroke fill markers"/><g stroke-width="1.259"><path d="M21.393 279.208s.24 4.108 3.906 4.108M21.393 287.425c0-.05.24-5.329 3.906-4.109"/></g></g></g></g></g></svg>