<svg xmlns="http://www.w3.org/2000/svg" width="100" height="100" viewBox="0 0 26.458 26.458"><g transform="translate(0 -270.542)"><rect width="26.458" height="26.458" x=".026" y="270.778" rx="2" ry="2"/><g transform="matrix(-.90127 0 0 .90127 23.689 26.593)"><circle transform="scale(-1 1)" r="4.475" cy="285.595" cx="-11.583" stroke="#fff" stroke-width="1.418" stroke-linecap="round" stroke-linejoin="round" paint-order="stroke fill markers"/><circle cx="-11.583" cy="285.595" r="3.003" transform="scale(-1 1)" fill="#fff" stroke="#fff" stroke-width=".951" stroke-linecap="round" stroke-linejoin="round" paint-order="stroke fill markers"/><path d="M13.534 280.934s-1.32-1.355-2.046-1.355c-.727 0-2.046 1.355-2.046 1.355M13.534 290.292s-1.32 1.355-2.046 1.355c-.727 0-2.046-1.355-2.046-1.355M16.2 283.586s1.354 1.319 1.354 2.046c0 .726-1.354 2.046-1.354 2.046M6.953 283.586s-1.355 1.319-1.355 2.046c0 .726 1.355 2.046 1.355 2.046" fill="#fff"/><path d="M9.846 280.692s-1.89-.025-2.404.489-.49 2.405-.49 2.405M13.306 280.692s1.891-.025 2.405.489c.514.514.489 2.405.489 2.405M13.306 290.571s1.891.025 2.405-.489c.514-.514.489-2.404.489-2.404M9.846 290.571s-1.89.025-2.404-.489-.49-2.404-.49-2.404" fill="#fff"/></g><g><g fill="none" stroke="#fff" stroke-linecap="round"><path d="M5.118 279.208s-.24 4.108-3.906 4.108M5.118 287.425s-.24-4.109-3.906-4.109" stroke-width="1.259"/><path d="M9.378 273.547s-4.694-.753-4.694 9.922c0 10.475 4.694 9.923 4.694 9.923" stroke-width="1.559" stroke-linejoin="round" stroke-miterlimit="0" paint-order="stroke fill markers"/><g stroke-width="1.259"><path d="M5.118 279.208s-.24 4.108-3.906 4.108M5.118 287.425c0-.05-.24-5.329-3.906-4.109"/></g><g><path d="M21.393 279.208s.24 4.108 3.906 4.108M21.393 287.425s.24-4.109 3.906-4.109" stroke-width="1.259"/><path d="M17.133 273.547s4.694-.753 4.694 9.922c0 10.475-4.694 9.923-4.694 9.923" stroke-width="1.559" stroke-linejoin="round" stroke-miterlimit="0" paint-order="stroke fill markers"/><g stroke-width="1.259"><path d="M21.393 279.208s.24 4.108 3.906 4.108M21.393 287.425c0-.05.24-5.329 3.906-4.109"/></g></g></g></g></g></svg>