<svg xmlns="http://www.w3.org/2000/svg" width="100" height="100" viewBox="0 0 26.458 26.458"><g transform="translate(0 -270.542)"><rect width="26.458" height="26.458" x=".026" y="270.778" rx="2" ry="2"/><g fill="none" stroke="#fff" stroke-linecap="round"><path d="M5.118 279.208s-.24 4.108-3.906 4.108M5.118 287.425s-.24-4.109-3.906-4.109" stroke-width="1.259"/><path d="M9.378 273.547s-4.694-.753-4.694 9.922c0 10.475 4.694 9.923 4.694 9.923" stroke-width="1.559" stroke-linejoin="round" stroke-miterlimit="0" paint-order="stroke fill markers"/><g stroke-width="1.259"><path d="M5.118 279.208s-.24 4.108-3.906 4.108M5.118 287.425c0-.05-.24-5.329-3.906-4.109"/></g><g><path d="M21.393 279.208s.24 4.108 3.906 4.108M21.393 287.425s.24-4.109 3.906-4.109" stroke-width="1.259"/><path d="M17.133 273.547s4.694-.753 4.694 9.922c0 10.475-4.694 9.923-4.694 9.923" stroke-width="1.559" stroke-linejoin="round" stroke-miterlimit="0" paint-order="stroke fill markers"/><g stroke-width="1.259"><path d="M21.393 279.208s.24 4.108 3.906 4.108M21.393 287.425c0-.05.24-5.329 3.906-4.109"/></g></g></g><g transform="translate(-.446 -.882)"><rect transform="rotate(-12.215)" ry="1" rx="1" y="278.512" x="-52.06" height="6.331" width="10.205" fill="#fff" paint-order="stroke fill markers"/><circle r="2.032" cy="282.59" cx="13.371" fill="#fff" paint-order="stroke fill markers"/><circle r="1.818" cx="13.371" cy="282.59" paint-order="stroke fill markers"/><rect width="9.147" height="5.675" x="-51.531" y="278.84" rx=".896" ry=".896" transform="rotate(-12.215)" paint-order="stroke fill markers"/><circle r="1.461" cy="282.59" cx="13.371" fill="#fff" paint-order="stroke fill markers"/></g></g></svg>