<svg xmlns="http://www.w3.org/2000/svg" width="800" height="700" viewBox="0 0 211.8 185.34"><g transform="matrix(.75667 0 0 .76311 35.318 -20.907)"><path d="M-46.675 27.57H233.06v242.703H-46.675z" fill="#11002b"/><path d="M14.786 187.501l57.422 51.716H-42.635z" fill="#e9c6af"/><path d="M62.118 171.507l57.421 51.716H4.696z" fill="#e9c6af" stroke="#11002b" stroke-width=".87"/><path d="M-46.675 225.093c98.684-22.462 191.037-18.777 279.735 0v45.18H-46.675z" fill="#f95"/><ellipse transform="matrix(-.87093 -.4914 -.49774 .86732 0 0)" cx="-196.221" cy="-35.777" rx="18.04" ry="18.115" fill="#b7c8c4"/><ellipse cx="114.368" cy="97.712" rx="10.73" ry="13.332" fill="#fff6d5"/><path d="M110.516 114.795h7.703l-.644 6.36h-6.415z" fill="#fff6d5"/><path d="M106.564 106.76l3.952 8.035m11.655-8.035l-3.952 8.035" fill="#fff6d5" stroke="#fff6d5" stroke-width=".348"/></g></svg>