<svg xmlns="http://www.w3.org/2000/svg" width="800" height="700" viewBox="0 0 211.667 185.208"><g transform="matrix(.75667 0 0 .76311 35.318 -21.041)"><path fill="#217867" d="M-46.675 27.573h279.734v242.7H-46.675z"/><g transform="translate(-40.549 39.271) scale(.37871)" fill="#d5e5ff"><ellipse cx="56.153" cy="137.815" rx="18.174" ry="18.709"/><rect width="75.37" height="37.384" x="32.072" y="130.258" rx="16.92"/><ellipse cy="131.517" cx="80.181" rx="25.123" ry="24.856"/></g><g transform="translate(32.767 9.804) scale(.53723)" fill="#d5e5ff"><ellipse ry="18.709" rx="18.174" cy="137.815" cx="56.153"/><rect rx="16.92" y="130.258" x="32.072" height="37.384" width="75.37"/><ellipse ry="24.856" rx="25.123" cx="80.181" cy="131.517"/></g><g transform="translate(.554 59.823) scale(.37871)" fill="#d5e5ff"><ellipse ry="18.709" rx="18.174" cy="137.815" cx="56.153"/><rect rx="16.92" y="130.258" x="32.072" height="37.384" width="75.37"/><ellipse ry="24.856" rx="25.123" cx="80.181" cy="131.517"/></g><circle r="18.078" cy="75.319" cx="20.122" fill="#ffe680"/><path d="M-46.675 205.73c98.684-32.088 191.036-26.824 279.734 0v64.543H-46.675z" fill="#afa"/><g transform="translate(88.81 56.91) scale(.37871)" fill="#d5e5ff"><ellipse ry="18.709" rx="18.174" cy="137.815" cx="56.153"/><rect rx="16.92" y="130.258" x="32.072" height="37.384" width="75.37"/><ellipse ry="24.856" rx="25.123" cx="80.181" cy="131.517"/></g><g transform="translate(108.671 1.786) scale(.53723)" fill="#d5e5ff"><ellipse cx="56.153" cy="137.815" rx="18.174" ry="18.709"/><rect width="75.37" height="37.384" x="32.072" y="130.258" rx="16.92"/><ellipse cy="131.517" cx="80.181" rx="25.123" ry="24.856"/></g><path d="M110.296 134.752l25.157-13.139 1.215 28.385-25.157 13.138z" fill="#f6ffd5" stroke="#f60" stroke-width=".664"/><path d="M133.99 124.823l-.58-.335-20.434 35.439.58.335z" fill="#f60"/><path d="M134.433 148.403l-.262.454-21.64-12.51.263-.453z" fill="#f60"/><path d="M111.51 163.137s-9.531 35.473-53.877 47.197" fill="none" stroke="#f60" stroke-width=".349"/><ellipse cx="57.803" cy="210.142" rx="1.541" ry="1.455" fill="#ff4b00"/></g></svg>