<svg xmlns="http://www.w3.org/2000/svg" width="800" height="700" viewBox="0 0 211.667 185.208"><g transform="matrix(.75667 0 0 .76311 35.318 -21.041)"><path fill="#217867" d="M-46.675 27.573h279.734v242.7H-46.675z"/><g transform="translate(-40.549 39.271) scale(.37871)" fill="#d5e5ff"><ellipse cx="56.153" cy="137.815" rx="18.174" ry="18.709"/><rect width="75.37" height="37.384" x="32.072" y="130.258" rx="16.92"/><ellipse cy="131.517" cx="80.181" rx="25.123" ry="24.856"/></g><g transform="translate(32.767 9.804) scale(.53723)" fill="#d5e5ff"><ellipse ry="18.709" rx="18.174" cy="137.815" cx="56.153"/><rect rx="16.92" y="130.258" x="32.072" height="37.384" width="75.37"/><ellipse ry="24.856" rx="25.123" cx="80.181" cy="131.517"/></g><g transform="translate(.554 59.823) scale(.37871)" fill="#d5e5ff"><ellipse ry="18.709" rx="18.174" cy="137.815" cx="56.153"/><rect rx="16.92" y="130.258" x="32.072" height="37.384" width="75.37"/><ellipse ry="24.856" rx="25.123" cx="80.181" cy="131.517"/></g><circle r="18.078" cy="75.319" cx="20.122" fill="#ffe680"/><path d="M-46.675 205.73c98.684-32.088 191.036-26.824 279.734 0v64.543H-46.675z" fill="#afa"/><g transform="translate(88.81 56.91) scale(.37871)" fill="#d5e5ff"><ellipse ry="18.709" rx="18.174" cy="137.815" cx="56.153"/><rect rx="16.92" y="130.258" x="32.072" height="37.384" width="75.37"/><ellipse ry="24.856" rx="25.123" cx="80.181" cy="131.517"/></g><g transform="translate(108.671 1.786) scale(.53723)" fill="#d5e5ff"><ellipse cx="56.153" cy="137.815" rx="18.174" ry="18.709"/><rect width="75.37" height="37.384" x="32.072" y="130.258" rx="16.92"/><ellipse cy="131.517" cx="80.181" rx="25.123" ry="24.856"/></g><path transform="matrix(.88584 -.46263 .04278 .99945 297.576 115.237)" fill="#f6ffd5" stroke="#f60" stroke-width=".698" d="M-147.469-65.387h28.4v28.4h-28.4z"/><path fill="#f60" d="M187.84 108.18l-.58-.335-20.435 35.439.58.335z"/><path fill="#f60" d="M188.282 131.76l-.262.454-21.639-12.51.262-.453z"/><path d="M165.36 146.494s-9.532 35.473-53.878 47.197" fill="none" stroke="#f60" stroke-width=".349"/><ellipse cx="111.652" cy="193.5" rx="1.541" ry="1.455" fill="#ff4b00"/></g></svg>