<svg xmlns="http://www.w3.org/2000/svg" width="800" height="700" viewBox="0 0 211.667 185.208"><g transform="matrix(.75667 0 0 .76311 35.318 -21.041)"><path fill="#59f" d="M-46.498 27.397h279.734v242.7H-46.498z"/><g transform="matrix(-.37871 0 0 .37871 62.684 50.479)" fill="#d5e5ff"><ellipse cx="56.153" cy="137.815" rx="18.174" ry="18.709"/><rect width="75.37" height="37.384" x="32.072" y="130.258" rx="16.92"/><ellipse cy="131.517" cx="80.181" rx="25.123" ry="24.856"/></g><g transform="matrix(-.53723 0 0 .53723 103.81 -18.915)" fill="#d5e5ff"><ellipse ry="18.709" rx="18.174" cy="137.815" cx="56.153"/><rect rx="16.92" y="130.258" x="32.072" height="37.384" width="75.37"/><ellipse ry="24.856" rx="25.123" cx="80.181" cy="131.517"/></g><ellipse transform="matrix(-.79262 -.60971 -.6162 .78759 0 0)" cx="-167.647" cy="-39.953" rx="18.02" ry="18.136" fill="#fd5"/><path d="M-46.675 242.241c98.684-13.936 191.036-11.65 279.734 0v28.032H-46.675z" fill="#0055d4"/><g transform="matrix(1 0 0 .47674 49.453 144.672)" fill="#deaa87"><path d="M37.038 175.009H82.78v10.682H37.038z"/><rect rx="6.608" width="45.742" height="17.512" x="37.038" y="175.009"/></g><g transform="matrix(-.53723 0 0 .53723 34.355 -10.28)" fill="#d5e5ff"><ellipse cx="56.153" cy="137.815" rx="18.174" ry="18.709"/><rect width="75.37" height="37.384" x="32.072" y="130.258" rx="16.92"/><ellipse cy="131.517" cx="80.181" rx="25.123" ry="24.856"/></g><path d="M110.162 185.22l20.59 39.969h-20.59zm-1.357 12.501l-20.59 27.468h20.59z" fill="#fff6d5"/><path fill="#deaa87" d="M108.75 201.688h1.413v26.968h-1.413z"/></g></svg>