<svg width="100" height="108" version="1.1" viewBox="0 0 26.458 28.575" xmlns="http://www.w3.org/2000/svg">
 <g transform="translate(-15.679 -151.26)">
  <path d="m42.111 165.55c0 7.3063-5.8965 13.229-13.203 13.229-7.3063 0-13.203-5.9229-13.203-13.229s5.8965-13.229 13.203-13.229c7.3063 0 13.203 5.9229 13.203 13.229z" fill="#006680" stroke-width=".073246"/>
  <g transform="matrix(.42888 0 0 .4422 -16.364 97.987)" fill="#e580ff">
   <path d="m94.06 148.47h19.265c2.6592 0 4.8 2.0264 4.8 4.5436 0 2.5172-2.1408 4.5436-4.8 4.5436h-19.265c-2.6592 0-4.8-2.0264-4.8-4.5436 0-2.5172 2.1408-4.5436 4.8-4.5436z" stroke-width=".26458"/>
   <path transform="rotate(45)" d="m178.02 20.777h13.736c1.8959 0 3.4222 1.639 3.4222 3.675 0 2.0359-1.5263 3.675-3.4222 3.675h-13.736c-1.8959 0-3.4222-1.639-3.4222-3.675 0-2.0359 1.5263-3.675 3.4222-3.675z" stroke-width=".20092"/>
   <path transform="matrix(.70711 -.70711 -.70711 -.70711 0 0)" d="m-38.055-195.3h13.736c1.8959 0 3.4222 1.639 3.4222 3.675 0 2.0359-1.5263 3.675-3.4222 3.675h-13.736c-1.8959 0-3.4222-1.639-3.4222-3.675 0-2.0359 1.5263-3.675 3.4222-3.675z" stroke-width=".20092"/>
  </g>
 </g>
</svg>
