<svg width="100" height="108" version="1.1" viewBox="0 0 26.458 28.575" xmlns="http://www.w3.org/2000/svg">
 <g transform="translate(-15.679 -151.26)">
  <path d="m38.671 165.55c0 7.3063-2.4569 14.288-9.7632 14.288s-9.7632-6.9812-9.7632-14.288 2.4569-14.288 9.7632-14.288 9.7632 6.9812 9.7632 14.288z" fill="#006680" stroke-width=".073246"/>
  <g transform="matrix(.42888 0 0 .4422 -16.364 97.987)" fill="#e580ff">
   <path d="m99.12 148.47h15.214c2.1 0 3.7906 2.0264 3.7906 4.5436s-1.6906 4.5436-3.7906 4.5436h-15.214c-2.1 0-3.7906-2.0264-3.7906-4.5436s1.6906-4.5436 3.7906-4.5436z" stroke-width=".23512"/>
   <path transform="rotate(45)" d="m178.02 20.777h13.736c1.8959 0 3.4222 1.639 3.4222 3.675 0 2.0359-1.5263 3.675-3.4222 3.675h-13.736c-1.8959 0-3.4222-1.639-3.4222-3.675 0-2.0359 1.5263-3.675 3.4222-3.675z" stroke-width=".20092"/>
   <path transform="matrix(.70711 -.70711 -.70711 -.70711 0 0)" d="m-38.055-195.3h13.736c1.8959 0 3.4222 1.639 3.4222 3.675 0 2.0359-1.5263 3.675-3.4222 3.675h-13.736c-1.8959 0-3.4222-1.639-3.4222-3.675 0-2.0359 1.5263-3.675 3.4222-3.675z" stroke-width=".20092"/>
  </g>
 </g>
</svg>
