<?xml version="1.0" encoding="UTF-8" standalone="no"?>
<!-- Created with Inkscape (http://www.inkscape.org/) -->

<svg
   xmlns:dc="http://purl.org/dc/elements/1.1/"
   xmlns:cc="http://creativecommons.org/ns#"
   xmlns:rdf="http://www.w3.org/1999/02/22-rdf-syntax-ns#"
   xmlns:svg="http://www.w3.org/2000/svg"
   xmlns="http://www.w3.org/2000/svg"
   xmlns:sodipodi="http://sodipodi.sourceforge.net/DTD/sodipodi-0.dtd"
   xmlns:inkscape="http://www.inkscape.org/namespaces/inkscape"
   width="21.166666mm"
   height="26.458334mm"
   viewBox="0 0 21.166666 26.458334"
   version="1.1"
   id="svg8"
   inkscape:version="0.92.2 (5c3e80d, 2017-08-06)"
   sodipodi:docname="project-icon.svg">
  <defs
     id="defs2" />
  <sodipodi:namedview
     id="base"
     pagecolor="#ffffff"
     bordercolor="#666666"
     borderopacity="1.0"
     inkscape:pageopacity="0.0"
     inkscape:pageshadow="2"
     inkscape:zoom="1.4"
     inkscape:cx="-3.1231961"
     inkscape:cy="-4.7070902"
     inkscape:document-units="mm"
     inkscape:current-layer="g4570"
     showgrid="false"
     fit-margin-top="0"
     fit-margin-left="0"
     fit-margin-right="0"
     fit-margin-bottom="0"
     inkscape:window-width="1366"
     inkscape:window-height="705"
     inkscape:window-x="-8"
     inkscape:window-y="-8"
     inkscape:window-maximized="1" />
  <metadata
     id="metadata5">
    <rdf:RDF>
      <cc:Work
         rdf:about="">
        <dc:format>image/svg+xml</dc:format>
        <dc:type
           rdf:resource="http://purl.org/dc/dcmitype/StillImage" />
        <dc:title></dc:title>
      </cc:Work>
    </rdf:RDF>
  </metadata>
  <g
     inkscape:label="Layer 1"
     inkscape:groupmode="layer"
     id="layer1"
     transform="translate(-2.2132403e-8,-270.54167)">
    <g
       id="g4545"
       transform="matrix(0.09769711,0,0,0.09769711,18.806544,196.89949)"
       style="fill:#ee4a23;fill-opacity:1">
      <g
         id="g4593">
        <g
           transform="translate(-12.649651)"
           id="g4570">
          <g
             id="g4656"
             transform="matrix(0.45436847,0,0,0.46040867,-37.756168,434.51961)">
            <path
               style="fill:#ee4a23;fill-opacity:1;stroke:none;stroke-width:2.16982937"
               d="m 56.497815,977.89347 c 53.366885,49.39213 87.689055,104.87993 94.650825,169.12493 1.12331,10.3656 -0.45038,18.2878 -11.65135,21.1731 l -21.94487,5.653 c -11.20089,2.8852 -31.131865,-6.9612 -33.305167,-17.5187 -11.933526,-57.9696 -75.1266807,-115.6413 -127.108519,-170.35544 -9.434187,-9.92996 -0.801578,-20.16079 11.651432,-21.17316 l 54.402458,-4.42229 c 12.452975,-1.01232 23.015094,7.9949 33.305191,17.51856 z"
               id="path4598"
               inkscape:connector-curvature="0"
               sodipodi:nodetypes="sssssssss"
               transform="translate(12.64965,-3.1986613e-6)" />
            <path
               sodipodi:nodetypes="sssssssss"
               inkscape:connector-curvature="0"
               id="rect4595"
               d="m -124.64615,1079.423 c -74.69631,-16.345 -139.81953,-56.997 -191.18966,-132.56924 -8.28832,-12.19325 -12.83975,-23.62732 -6.70547,-37.03412 l 12.01823,-26.26647 c 6.13426,-13.40676 27.83777,-18.22933 37.03413,-6.7055 50.496,63.27548 138.35909,81.59459 215.872539,105.90584 14.067851,4.41219 15.106466,24.91829 6.705433,37.03419 l -36.701103,52.9298 c -8.40103,12.1159 -22.631339,9.857 -37.034099,6.7055 z"
               style="fill:#ee4a23;fill-opacity:1;stroke:none;stroke-width:2.70820022"
               transform="translate(12.64965,-3.1986613e-6)" />
            <rect
               ry="18.131838"
               rx="12.903205"
               y="1101.2002"
               x="-178.81995"
               height="169.6131"
               width="87.542252"
               id="rect4600"
               style="fill:#ee4a23;fill-opacity:1;stroke:none;stroke-width:1.55653512"
               transform="translate(12.64965,-3.1986613e-6)" />
            <rect
               style="fill:#ee4a23;fill-opacity:1;stroke:none;stroke-width:1.55653512"
               id="rect4602"
               width="87.542252"
               height="169.6131"
               x="-75.028503"
               y="1101.2002"
               rx="12.903205"
               ry="18.131838"
               transform="translate(12.64965,-3.1986613e-6)" />
            <rect
               ry="25.070084"
               rx="27.769989"
               y="1218.7771"
               x="-186.14897"
               height="62.868935"
               width="94.871277"
               id="rect4604"
               style="fill:#ee4a23;fill-opacity:1;stroke:none;stroke-width:2.6850636"
               transform="translate(12.64965,-3.1986613e-6)" />
            <rect
               style="fill:#ee4a23;fill-opacity:1;stroke:none;stroke-width:2.6850636"
               id="rect4610"
               width="94.871277"
               height="62.868935"
               x="-82.357361"
               y="1218.7771"
               rx="27.769989"
               ry="25.070084"
               transform="translate(12.64965,-3.1986613e-6)" />
            <g
               id="g4582"
               style="fill:#ee4a23;fill-opacity:1"
               transform="translate(12.64965,-3.1986613e-6)">
              <path
                 inkscape:connector-curvature="0"
                 id="path4573"
                 d="m -129.23948,741.45609 c 0,0 46.506816,-108.05997 94.381486,0 z"
                 style="fill:#ee4a23;fill-opacity:1;stroke:none;stroke-width:2.70820022px;stroke-linecap:butt;stroke-linejoin:miter;stroke-opacity:1" />
              <path
                 style="fill:#ee4a23;fill-opacity:1;stroke:none;stroke-width:2.70820022px;stroke-linecap:butt;stroke-linejoin:miter;stroke-opacity:1"
                 d="m -34.857994,741.45609 c 0,0 109.295227,-43.52466 66.737789,66.73778 z"
                 id="path4575"
                 inkscape:connector-curvature="0" />
              <path
                 inkscape:connector-curvature="0"
                 id="path4577"
                 d="m -129.23948,741.45609 c 0,0 -109.29523,-43.52466 -66.73779,66.73778 z"
                 style="fill:#ee4a23;fill-opacity:1;stroke:none;stroke-width:2.70820022px;stroke-linecap:butt;stroke-linejoin:miter;stroke-opacity:1" />
            </g>
            <path
               style="fill:#ee4a23;fill-opacity:1;stroke:none;stroke-width:2.91411018"
               d="M -188.82245,838.45148 H 24.724977 c 15.864505,0 28.63629,12.77178 28.63629,28.63629 V 1121.847 c 0,15.8645 -14.218208,22.0179 -28.63629,28.6362 -71.182476,32.6746 -142.364947,29.2963 -213.547427,0 -14.67059,-6.0379 -28.63629,-12.7717 -28.63629,-28.6362 V 867.08777 c 0,-15.86451 12.77178,-28.63629 28.63629,-28.63629 z"
               id="rect4565"
               inkscape:connector-curvature="0"
               sodipodi:nodetypes="sssssssss"
               transform="translate(12.64965,-3.1986613e-6)" />
            <ellipse
               ry="132.04578"
               rx="135.41"
               cy="855.62286"
               cx="-69.399094"
               id="path4552"
               style="fill:#ee4a23;fill-opacity:1;stroke:none;stroke-width:3.33041167" />
            <path
               sodipodi:nodetypes="sssss"
               inkscape:connector-curvature="0"
               id="ellipse4554"
               d="m 40.711605,838.4515 c 13.50169,55.31626 -34.0457979,87.98119 -108.144235,86.98926 -70.46125,-0.94322 -121.39862,-23.12221 -113.76794,-79.49315 6.1951,-45.76582 46.86487,-84.91927 108.144229,-86.98926 61.279356,-2.07 102.795556,34.5394 113.767946,79.49315 z"
               style="fill:#ffffff;fill-opacity:1;stroke:none;stroke-width:2.39498472" />
            <path
               inkscape:connector-curvature="0"
               id="path4563"
               d="m -59.271411,779.10679 c 0,0 -111.211959,-14.8679 -108.238389,83.26029 0,0 17.24678,-79.69201 108.238389,-83.26029 z"
               style="fill:#ee4a23;fill-opacity:1;stroke:none;stroke-width:3.33041167px;stroke-linecap:butt;stroke-linejoin:miter;stroke-opacity:1" />
            <path
               style="fill:#ffffff;fill-opacity:1;stroke:none;stroke-width:0.91450161px;stroke-linecap:butt;stroke-linejoin:miter;stroke-opacity:1"
               d="m -153.56198,1232.697 c 0,0 -23.38332,20.0611 -2.73938,37.3971 0,0 -13.16971,-18.1063 2.73938,-37.3971 z"
               id="path4608"
               inkscape:connector-curvature="0" />
            <path
               inkscape:connector-curvature="0"
               id="path4612"
               d="m -50.553651,1232.697 c 0,0 -23.38332,20.0611 -2.73938,37.3971 0,0 -13.16971,-18.1063 2.73938,-37.3971 z"
               style="fill:#ffffff;fill-opacity:1;stroke:none;stroke-width:0.91450161px;stroke-linecap:butt;stroke-linejoin:miter;stroke-opacity:1" />
            <path
               inkscape:connector-curvature="0"
               id="path4614"
               d="m -255.27709,898.66769 c 0,0 -14.18594,-27.34934 -35.78122,-11.21389 0,0 20.63698,-8.68299 35.78122,11.21389 z"
               style="fill:#ffffff;fill-opacity:1;stroke:none;stroke-width:0.91450161px;stroke-linecap:butt;stroke-linejoin:miter;stroke-opacity:1" />
            <path
               style="fill:#ffffff;fill-opacity:1;stroke:none;stroke-width:0.91450161px;stroke-linecap:butt;stroke-linejoin:miter;stroke-opacity:1"
               d="m 116.74712,1048.7708 c 0,0 -6.77251,-25.3453 -47.039745,-55.03391 0,0 34.987095,29.40851 47.039745,55.03391 z"
               id="path4616"
               inkscape:connector-curvature="0" />
            <path
               style="fill:#ffffff;fill-opacity:1;stroke:none;stroke-width:0.91450161px;stroke-linecap:butt;stroke-linejoin:miter;stroke-opacity:1"
               d="m -154.00421,740.83923 c 0,0 -30.28971,-5.63565 -30.84917,21.31609 0,0 5.84625,-21.61251 30.84917,-21.31609 z"
               id="path4618"
               inkscape:connector-curvature="0" />
            <path
               inkscape:connector-curvature="0"
               id="path4620"
               d="m 47.61939,767.02113 c 0,0 -2.076618,-30.73946 -28.320257,-24.57661 0,0 22.38744,0.28597 28.320257,24.57661 z"
               style="fill:#ffffff;fill-opacity:1;stroke:none;stroke-width:0.91450161px;stroke-linecap:butt;stroke-linejoin:miter;stroke-opacity:1" />
            <path
               style="fill:#ffffff;fill-opacity:1;stroke:none;stroke-width:0.91450161px;stroke-linecap:butt;stroke-linejoin:miter;stroke-opacity:1"
               d="m -48.089016,712.30954 c 0,0 -20.820052,-22.71018 -37.467007,-1.50669 0,0 17.662905,-13.75867 37.467007,1.50669 z"
               id="path4622"
               inkscape:connector-curvature="0" />
          </g>
        </g>
      </g>
    </g>
  </g>
</svg>
