<svg xmlns="http://www.w3.org/2000/svg" width="100" height="67" viewBox="0 0 26.458 17.727"><g fill="#ee4a23"><path d="M12.942 3.664c-2.673-.003-4.975.127-4.975.127v10.145s2.302.13 4.975.127c2.673-.003 5.717-.138 7.202-.669 2.289-.818 6.314-4.53 6.314-4.53s-4.025-3.713-6.314-4.531c-1.485-.53-4.529-.666-7.202-.67zm4.573 3.728a1.714 1.471 0 0 1 1.714 1.472 1.714 1.471 0 0 1-1.714 1.471 1.714 1.471 0 0 1-1.714-1.471 1.714 1.471 0 0 1 1.714-1.472z"/><path d="M10.687 3.79L7.307 0 0 2.246v2.246l4.626 1.626v2.866h6.604z"/><path d="M10.687 13.936l-3.38 3.791L0 15.481v-2.246l4.626-1.626V8.744h6.604z"/></g></svg>