<svg xmlns="http://www.w3.org/2000/svg" width="400" height="270.091" viewBox="0 0 105.833 71.462"><path fill="#00aad4" stroke="#000" stroke-width="7.806" d="M284.352 253.985h68.594v76.322h-68.594z" transform="matrix(.16407 0 0 .16797 -9.446 -2.445)"/><path d="M506.335 105.475s62.276-7.22 57.763 155.24l-115.741 44.34c.35-.175-27.452-160.926 57.978-199.58z" stroke="#000" transform="matrix(.16407 0 0 .16797 -9.446 -2.445)"/><g stroke="#000" stroke-width="8"><path fill="#ffe680" d="M84.703 161.188h209.876v126.114H84.703z" transform="matrix(.18674 .02414 -.02414 .18674 13.5 -17.628)"/><path d="M84.697 169.188s63.973 55.998 104.945 55.998c40.97 0 104.932-55.998 104.932-55.998l.006 118.114H84.703z" fill="#ffe680" transform="matrix(.18674 .02414 -.02414 .18674 13.5 -17.628)"/><path d="M84.703 287.302l67.763-70.586M294.58 287.302l-67.763-70.586" fill="none" transform="matrix(.18674 .02414 -.02414 .18674 13.5 -17.628)"/></g><path d="M156.142 263.423s-27.076-175.096 63.18-181.414l287.013 23.466s-87.549 27.077-56.862 194.953" fill="#00aad4" stroke="#000" stroke-width="7" transform="matrix(.16407 0 0 .16797 -9.446 -2.445)"/><path d="M156.142 263.423l293.331 37.005" fill="none" stroke="#000" stroke-width="10" transform="matrix(.16407 0 0 .16797 -9.446 -2.445)"/><g stroke="#000"><path d="M419.689 23.466v187.486" fill="none" stroke-width="15" transform="matrix(0 -.16797 .16407 0 24.028 102.317)"/><path fill="#a00" stroke-width="10" d="M334.641 23.466h87.548v47.836h-87.548z" transform="matrix(0 -.16797 .16407 0 24.028 102.317)"/></g><text style="line-height:1.25" x="181.995" y="438.585" font-weight="400" font-size="93.182" font-family="sans-serif" letter-spacing="0" word-spacing="0" stroke-width="2.33" transform="matrix(.16407 0 0 .16797 -6.849 -2.445)"><tspan x="181.995" y="438.585" fill="#fff">Mailbox</tspan></text></svg>