<svg xmlns="http://www.w3.org/2000/svg" width="100" height="100" viewBox="0 0 26.458 26.458"><g stroke="#040225" stroke-linecap="round"><path d="M57.254 154.405h8.704c.435 0 .763.233.786.52l.886 11.195c.022.288-.351.52-.787.52H56.368c-.436 0-.81-.232-.786-.52l.885-11.195c.023-.287.35-.52.787-.52z" fill="#ffebdf" stroke-width=".9" paint-order="stroke fill markers" transform="matrix(.40063 0 0 .41114 -11.452 -47.628)"/><g fill="#ffebdf" stroke-width="1.073" paint-order="stroke fill markers" transform="matrix(.40063 0 0 .41114 -11.452 -47.628)"><ellipse ry="3.884" rx="2.769" cy="137.476" cx="78.113"/><ellipse cx="45.098" cy="137.476" rx="2.769" ry="3.884"/></g><g transform="matrix(.40063 0 0 .41114 -11.452 -47.628)"><ellipse cx="61.606" cy="137.656" rx="16.389" ry="19.779" fill="#ffebdf" stroke-width="1.307" paint-order="stroke fill markers"/><g fill="none"><path d="M57.922 147.932s1.12 1.412 3.684 1.412c2.503 0 3.684-1.412 3.684-1.412" stroke-width=".661"/><path d="M53.066 134.689s.907-1.412 2.979-1.412c2.024 0 2.978 1.412 2.978 1.412m5.165 0s.906-1.412 2.978-1.412c2.024 0 2.979 1.412 2.979 1.412" stroke-width=".794"/></g></g><path d="M53.092 157.477s5.352 4.18 8.514 4.18c3.161 0 8.513-4.18 8.513-4.18.37-.181.638.345.743.743l4.18 15.832c.105.398-.331.743-.743.743H48.912c-.411 0-.848-.345-.743-.743l4.18-15.832c.106-.398.332-.743.743-.743z" fill="#0d095a" stroke-width="1.045" paint-order="stroke fill markers" transform="matrix(.40063 0 0 .41114 -11.452 -47.628)"/><g transform="matrix(.34746 0 0 .35658 -7.864 -41.186)" fill="#ffebdf" stroke-width="2.107" paint-order="stroke fill markers"><ellipse ry="4.706" rx="3.476" cy="183.946" cx="51.54"/><ellipse cx="69.872" cy="183.946" rx="3.476" ry="4.706"/></g></g><path d="M134.004 108.178c-16.701-.149-15.932 12.91-15.932 12.91 2.406 9.206 12.82-3.881 12.82-3.881s20.621 13.087 23.027 3.882c0 0 .825-14.073-17.924-12.832a34.979 34.979 0 0 0-1.991-.078z" fill="#0d095a" stroke="#000" stroke-width=".166" transform="matrix(.40063 0 0 .41114 -41.255 -44.442)"/><g stroke="#040225" stroke-linecap="round"><path d="M57.254 154.405h8.704c.435 0 .763.233.786.52l.886 11.195c.022.288-.351.52-.787.52H56.368c-.436 0-.81-.232-.786-.52l.885-11.195c.023-.287.35-.52.787-.52z" fill="#ffebdf" stroke-width=".9" paint-order="stroke fill markers" transform="matrix(.40063 0 0 .41114 -11.452 -47.628)"/><g fill="#ffebdf" stroke-width="1.073" paint-order="stroke fill markers" transform="matrix(.40063 0 0 .41114 -11.452 -47.628)"><ellipse cx="78.113" cy="137.476" rx="2.769" ry="3.884"/><ellipse ry="3.884" rx="2.769" cy="137.476" cx="45.098"/></g><g transform="matrix(.40063 0 0 .41114 -11.452 -47.628)"><ellipse ry="19.779" rx="16.389" cy="137.656" cx="61.606" fill="#ffebdf" stroke-width="1.307" paint-order="stroke fill markers"/><g fill="none"><path d="M57.922 147.932s1.12 1.412 3.684 1.412c2.503 0 3.684-1.412 3.684-1.412" stroke-width=".661"/><path d="M53.066 134.689s.907-1.412 2.979-1.412c2.024 0 2.978 1.412 2.978 1.412m5.165 0s.906-1.412 2.978-1.412c2.024 0 2.979 1.412 2.979 1.412" stroke-width=".794"/></g></g><path d="M53.092 157.477s5.352 4.18 8.514 4.18c3.161 0 8.513-4.18 8.513-4.18.37-.181.638.345.743.743l4.18 15.832c.105.398-.331.743-.743.743H48.912c-.411 0-.848-.345-.743-.743l4.18-15.832c.106-.398.332-.743.743-.743z" fill="#0d095a" stroke-width="1.045" paint-order="stroke fill markers" transform="matrix(.40063 0 0 .41114 -11.452 -47.628)"/><g transform="matrix(.34746 0 0 .35658 -7.864 -41.186)" fill="#ffebdf" stroke-width="2.107" paint-order="stroke fill markers"><ellipse cx="51.54" cy="183.946" rx="3.476" ry="4.706"/><ellipse ry="4.706" rx="3.476" cy="183.946" cx="69.872"/></g></g><path d="M134.004 108.178c-16.701-.149-15.932 12.91-15.932 12.91 2.406 9.206 12.82-3.881 12.82-3.881s20.621 13.087 23.027 3.882c0 0 .825-14.073-17.924-12.832a34.979 34.979 0 0 0-1.991-.078z" fill="#0d095a" stroke="#000" stroke-width=".166" transform="matrix(.40063 0 0 .41114 -41.255 -44.442)"/></svg>