<svg xmlns="http://www.w3.org/2000/svg" width="100" height="100" viewBox="0 0 26.458334 26.458334"><path d="M18.52 13.23a5.292 5.4 0 0 1-5.29 5.4 5.292 5.4 0 0 1-5.292-5.4 5.292 5.4 0 0 1 5.291-5.401 5.292 5.4 0 0 1 5.292 5.4zM26.458 13.218v1.131h-5.98v-1.131zM5.98 13.218v1.131H0v-1.131zM12.73 0h.997v6.789h-.996zM23.191 3.063l.705.8-4.229 4.8-.704-.8zM3.267 3.063l-.705.8 4.229 4.8.705-.8zM12.73 26.458h.997V19.67h-.996zM23.191 23.396l.705-.8-4.229-4.801-.704.8zM3.267 23.396l-.705-.8 4.229-4.801.705.8z"/></svg>