<svg xmlns="http://www.w3.org/2000/svg" width="100" height="100" viewBox="0 0 26.458 26.458"><g transform="matrix(.32128 0 0 .30461 -15.232 -32.234)"><path d="M99.483 105.82S4.536 192.679 71.06 192.679c66.523 0 58.389-11.57 58.389-11.57l-13.788-14.133s-74.386 22.754-41.88-8.996c32.506-31.75 45.357-43.089 45.357-43.089z" fill="#1a1a1a"/><ellipse ry="3.475" rx="12.695" cy="182.887" cx="108.178" fill="#fff"/><g transform="matrix(.80011 0 0 .80011 23.237 37.308)" fill="#fff"><circle cx="107.82" cy="146.322" r="9.071"/><path d="M105.003 148.224h5.842v10.424h-5.842z"/><path d="M100.574 156.242h14.967v17.991h-14.967z"/><path d="M106.416 162.063l-4.914 4.913-10.205-10.205 4.913-4.914zM115.54 156.242l-6.017 3.475 7.216 12.499 6.018-3.474z"/><path d="M98.39 154.998l-3.876 3.875-4.01-4.009 3.876-3.875zM120.04 165.823l-4.747 2.74 2.835 4.911 4.747-2.74zM101.502 166.976h6.809v14.433h-6.809z"/><path d="M102.168 177.647h5.37v5.67h-5.37zM108.712 166.976h6.949v14.433h-6.949z"/><path d="M109.392 177.647h5.481v5.67h-5.481z"/></g><g transform="matrix(.80011 0 0 .80011 22.39 36.884)" fill="#1a1a1a"><circle r="9.071" cy="146.322" cx="107.82"/><path d="M105.003 148.224h5.842v10.424h-5.842z"/><path d="M100.574 156.242h14.967v17.991h-14.967z"/><path d="M106.416 162.063l-4.914 4.913-10.205-10.205 4.913-4.914zM115.54 156.242l-6.017 3.475 7.216 12.499 6.018-3.474z"/><path d="M98.39 154.998l-3.876 3.875-4.01-4.009 3.876-3.875zM120.04 165.823l-4.747 2.74 2.835 4.911 4.747-2.74zM101.502 166.976h6.809v14.433h-6.809z"/><path d="M102.168 177.647h5.37v5.67h-5.37zM108.712 166.976h6.949v14.433h-6.949z"/><path d="M109.392 177.647h5.481v5.67h-5.481z"/></g></g></svg>