<svg xmlns="http://www.w3.org/2000/svg" width="100" height="100" viewBox="0 0 26.458 26.458"><path d="M4.406 4.926s8.437 13.659 15.81 3.318c7.372-10.341-6.853-8.547-5.584-1.567.86 4.734 6.243 18.397-6.083 19.498-12.326 1.1-9.162-7.735-3.364-7.328 5.798.406 13.653 12.325 20.435 5.364M4.857 4.478s8.436 13.66 15.809 3.319c7.373-10.341-6.852-8.548-5.584-1.567.86 4.734 6.243 18.397-6.083 19.497-12.326 1.101-9.161-7.734-3.363-7.328 5.798.407 13.652 12.326 20.434 5.364M5.195 4.031S13.63 17.69 21.004 7.349c7.373-10.34-6.852-8.547-5.584-1.566.86 4.734 6.243 18.396-6.083 19.497-12.326 1.1-9.161-7.734-3.363-7.328 5.797.406 13.652 12.325 20.434 5.364" fill="none" stroke="#000" stroke-width=".14"/></svg>