<svg xmlns="http://www.w3.org/2000/svg" width="100" height="100" viewBox="0 0 26.458 26.458"><g transform="matrix(.38084 0 0 .40382 -28.344 -36.444)"><path d="M98.444 104.74h12.85c.876 0 1.556.762 1.581 1.709l1.255 47.609c.025.946-.705 1.709-1.58 1.709H97.19c-.876 0-1.606-.763-1.581-1.71l1.254-47.608c.025-.947.705-1.71 1.581-1.71z" fill="#d40000"/><rect ry="12" rx="12" y="90.247" x="82.399" height="25.324" width="42.711" fill="#ccc"/><path d="M75.334 93.498h4.78c.686 0 3.532 4.973 3.532 11.15 0 6.177-2.846 11.15-3.532 11.15h-4.78c-.686 0-.91-4.973-.91-11.15 0-6.177.224-11.15.91-11.15zm34.356-2.117s26.226-5.48 33.57 10.583c4.587 10.037-16.576-11.717-31.67 3.402-9.404 9.42-1.9-13.985-1.9-13.985z" fill="#ccc"/></g></svg>