<svg xmlns="http://www.w3.org/2000/svg" width="300.002" height="300" viewBox="0 0 79.376 79.375"><g transform="matrix(.91593 0 0 .97077 -.138 -160.738)"><ellipse transform="rotate(-2.73)" ry="15.635" rx="14.166" cy="182.584" cx="23.308" fill="purple"/><path d="M23.8 165.797s8.798-.42 9.246-.096c.448.325-4.954 3.09-4.954 3.09zm1.21 32.167l8.85-1.136-3.964-2.469z" fill="purple"/><rect width="8.433" height="3.818" x="-.963" y="239.903" rx="2.254" ry="3.106" transform="matrix(.9757 -.21914 .23583 .9718 0 0)" fill="#ffd42a"/><rect transform="matrix(.98923 -.1464 .34559 .93839 0 0)" ry="2.119" rx="2.223" y="241.621" x="-29.239" height="2.605" width="8.317" fill="#ffd42a"/><rect width="8.355" height="3.055" x="-16.439" y="236.523" rx="2.233" ry="2.485" transform="matrix(.98474 -.17402 .29472 .95558 0 0)" fill="#ffd42a"/><path d="M40.802 227.074l10.015.459c-2.976 3.87-7.612 10.316-3.381 17.342l-11.007 1.78c-3.167-7.148.514-15.125 4.373-19.58z" fill="purple"/><path d="M31.478 222.931l9.324 4.143c-7.722 3.4-14.59 12.049-9.947 19.74l-7.541-2.452c-4.383-11.47 6.598-22.359 8.164-21.431z" fill="purple"/><g fill="#ffb011"><path d="M25.621 242.735c5.717.778 10.665 1.028 10.665 2.304 0 1.277-4.757 2.304-10.665 2.304-5.908 0-10.842-1.171-10.842-2.304 0-2.035 2.018-3.505 10.842-2.304z"/><path d="M14.779 244.875h21.507v2.468H16.138c-1.506-.897-1.36-2.232-1.36-2.468z"/></g><g fill="#ffd42a"><path d="M37.755 242.735c5.19.778 9.681 1.028 9.681 2.304 0 1.277-4.318 2.304-9.68 2.304-5.364 0-9.843-1.171-9.843-2.304 0-2.035 1.832-3.505 9.842-2.304z"/><path d="M27.913 244.875h19.523s-.264 2.468-1.087 2.468H29.147c-1.367-.897-1.234-2.232-1.234-2.468z"/></g><ellipse transform="rotate(-12.545)" ry="18.022" rx="16.036" cy="218.201" cx="-8.671" fill="purple"/><path d="M33.036 188.465c5.375-4.32 15.166 9.593 20.689 18.532 6.576 10.644-2.134 23.612-10.878 25.557-8.744 1.946-22.082-6.099-20.69-18.532 1.884-16.814 3.135-19.333 10.879-25.557z" fill="purple"/><path d="M30.39 186.348l6.392 5.131c-6.983 13.995-4.492 14.14-26.697 32.03l-6.392-5.13c25.238-19.29 18.95-17.64 26.697-32.031z" fill="purple"/><ellipse transform="skewY(9.09) scale(.98744 1)" ry="9.488" rx="6.767" cy="211.516" cx="29.232" fill="#f0f"/><path d="M39.656 228.215s20.136-8.574 20.136-29.2c0-20.627 29.772-19.932 24.402.111-2.088 7.791-13.58 8.379-13.58-2.62" fill="none" stroke="purple" stroke-width="3.969" stroke-linecap="round"/><rect transform="rotate(-38.152)" width="9.399" height="4.406" x="-136.15" y="172.046" rx="2.512" ry="3.584" fill="#ffd42a"/><rect transform="rotate(-38.152)" ry="3.584" rx="2.512" y="175.58" x="-136.15" height="4.406" width="9.399" fill="#ffd42a"/><rect transform="rotate(-38.152)" width="9.399" height="4.406" x="-136.15" y="179.113" rx="2.512" ry="3.584" fill="#ffd42a"/><path d="M40.355 189.982c4.514 3.047 6.534 6.292 8.56 9.259l.095 25.068h-8.655z" fill="#f0f"/><path d="M49.01 223.534h-8.655s-2.463 13.084 18.326 13.084l-1.796-8.22s-7.875 1.707-7.875-4.864z" fill="#f0f"/><rect transform="rotate(-2.73)" ry="15.079" rx="10.942" y="180.135" x="-5.802" height="18.807" width="32.171" fill="#ffd42a"/><ellipse transform="rotate(-2.73)" ry="2.254" rx="2.281" cy="192.498" cx="1.685" fill="purple"/><ellipse transform="rotate(-2.73)" ry="9.648" rx="9.526" cy="176.349" cx="16.668" fill="#ffd42a"/><ellipse transform="rotate(-2.73)" cx="12.24" cy="175.449" rx="1.34" ry="1.325" fill="purple"/><ellipse transform="rotate(-2.73)" ry="1.325" rx="1.34" cy="175.867" cx="16.312" fill="purple"/><path d="M12.487 179.806s3.177-.03 2.974-4.3l2.928 4.996zm28.832-5.279l6.676-2.064c3.06-.946 4.802 2.544 5.28 6.243.477 3.7-.358 7.124-3.471 7.772l-6.761 1.406c-3.114.648-6.073-2.244-6.55-5.944-.478-3.7 1.766-6.466 4.826-7.413z" fill="#ffd42a"/><g transform="matrix(.59283 -.32464 .32456 .59279 -2.156 94.647)"><circle cx="-1.73" cy="144.987" r="8.221" fill="#ffd42a"/><path d="M-9.95 144.987a8.221 8.221 0 0 1 8.22-8.22 8.221 8.221 0 0 1 8.221 8.22h-8.22z" fill="#ffbb15"/></g></g></svg>