<svg xmlns="http://www.w3.org/2000/svg" width="100" height="100" viewBox="0 0 26.458 26.458"><g transform="translate(0 -270.542)"><rect fill="#dc97b3" rx="1.306" ry="1.944" y="270.542" height="26.458" width="26.458"/><g fill="#fff" transform="matrix(-1.1905 0 0 1.1905 27.214 -47.663)"><rect ry=".498" rx=".62" y="275.928" x="4.792" height="6.897" width="10.67"/><path d="M4.792 281.324c0-.225.301-.406.676-.406H7.44c.375 0 .843.254.677.406l-3.324 3.023v-3.023z"/></g><rect fill="#dc97b3" ry=".438" rx=".719" y="278.028" x="3.95" height="9.235" width="14.737"/><g fill="#fff" transform="translate(-1.046 -62.78) scale(1.23514)"><rect width="10.67" height="6.897" x="4.792" y="275.928" rx=".62" ry=".498"/><path d="M4.792 281.34c0-.224.301-.405.676-.405H7.44c.375 0 .843.254.677.406l-3.324 3.023v-3.023z"/></g></g></svg>