<svg xmlns="http://www.w3.org/2000/svg" width="100" height="100" viewBox="0 0 26.458 26.458"><g fill="#ffdd40" stroke-linecap="round" paint-order="stroke fill markers"><path d="M5.728 4.565c-.581 0-1.05.469-1.05 1.05v19.793c0 .582.469 1.05 1.05 1.05H20.73c.582 0 1.05-.468 1.05-1.05V5.615c0-.581-.468-1.05-1.05-1.05zm4.582 6.393c.208 0 .416.08.576.24l2.343 2.345 2.344-2.345a.811.811 0 0 1 1.15 0l.818.817a.813.813 0 0 1 0 1.152l-2.344 2.345 2.344 2.344a.814.814 0 0 1 0 1.153l-.818.817a.811.811 0 0 1-1.15 0l-2.344-2.345-2.343 2.345a.811.811 0 0 1-1.151 0l-.817-.817a.814.814 0 0 1 0-1.153l2.344-2.344-2.344-2.345a.813.813 0 0 1 0-1.152l.817-.817a.81.81 0 0 1 .575-.24z"/><g transform="matrix(1.11619 0 0 1.11684 -1.54 -19.864)"><rect width="18.963" height="2.143" x="3.75" y="18.763" rx=".94" ry=".94"/><rect ry=".752" rx=".752" y="17.786" x="5.646" height="1.714" width="15.171"/></g></g></svg>