<svg xmlns="http://www.w3.org/2000/svg" width="100" height="100" viewBox="0 0 26.458334 26.45833"><g fill="#161650" transform="translate(2.785 -212.861) scale(.79347)"><circle transform="translate(-.066 1.169)" cx="13.229" cy="283.771" r="13.229"/><path d="M11.31 268.267h3.992c2.008 0 1.996 5.375 1.996 5.375H9.315s.013-5.375 1.995-5.375z"/><path d="M9.648 270.625s-.38 2.054-2.09 2.772v.245h3v-.606zm7.316 0l-.166 3.017h1.97v-.383c-1.467-.811-1.804-2.634-1.804-2.634zm-5.654 30.987h3.992c2.008 0 1.996-5.374 1.996-5.374H9.315s.013 5.374 1.995 5.374z"/><path d="M9.648 299.254s-.38-2.054-2.09-2.771v-.246h3v.607zm7.316 0l-.166-3.017h1.97v.383c-1.467.812-1.804 2.634-1.804 2.634zm12.872-16.167v3.992c0 2.008-5.375 1.995-5.375 1.995v-7.983s5.375.013 5.375 1.996z"/><path d="M27.478 281.425s-2.055-.38-2.772-2.09h-.245v3h.606zm0 7.316l-3.017-.167v1.972h.382c.812-1.468 2.635-1.805 2.635-1.805zm-30.988-5.654v3.992c0 2.008 5.375 1.995 5.375 1.995v-7.983s-5.375.013-5.375 1.996z"/><path d="M-1.151 281.425s2.054-.38 2.771-2.09h.245v3H1.26zm0 7.316l3.016-.167v1.972h-.382c-.812-1.468-2.634-1.805-2.634-1.805zm24.793-16.901l2.823 2.823c1.42 1.42-2.39 5.212-2.39 5.212l-5.644-5.645s3.81-3.791 5.211-2.39z"/><path d="M20.8 272.332s-1.722 1.184-3.439.482l-.173.173 2.122 2.122.429-.429zm5.173 5.174l-2.251 2.015 1.393 1.394.271-.27c-.464-1.613.587-3.14.587-3.14zM.064 295.42l2.822 2.822c1.42 1.42 5.212-2.39 5.212-2.39l-5.645-5.645s-3.791 3.81-2.39 5.212z"/><path d="M.556 292.576s1.183-1.721.481-3.438l.174-.173 2.122 2.122-.43.429zm5.174 5.174l2.014-2.252 1.394 1.394-.27.271c-1.612-.464-3.139.587-3.139.587zm20.74-2.33l-2.822 2.822c-1.42 1.42-5.211-2.39-5.211-2.39l5.645-5.645s3.79 3.81 2.389 5.212z"/><path d="M25.979 292.576s-1.184-1.721-.482-3.438l-.173-.173-2.122 2.122.429.429zm-5.174 5.174l-2.015-2.252-1.394 1.394.271.271c1.612-.464 3.138.587 3.138.587zM2.892 271.84L.07 274.663c-1.42 1.42 2.389 5.212 2.389 5.212l5.645-5.645s-3.81-3.791-5.212-2.39z"/><path d="M5.735 272.332s1.721 1.184 3.438.482l.174.173-2.122 2.122-.43-.429zm-5.173 5.174l2.25 2.015-1.393 1.394-.27-.27c.463-1.613-.587-3.14-.587-3.14z"/></g><g transform="translate(2.732 -211.934) scale(.79347)"><circle r="9.733" cy="283.771" cx="13.229" fill="#afafe9"/><circle cx="13.229" cy="283.771" r="6.142" fill="#161650"/></g></svg>