<svg xmlns="http://www.w3.org/2000/svg" width="100" height="100" viewBox="0 0 26.458333 26.458334"><g transform="translate(0 -270.542)"><circle cx="13.229" cy="279.141" r="8.599" fill="#282b24" paint-order="stroke fill markers"/><path d="M10.516 283.271h5.427c1.164 0 1.768.861 2.102 1.802l3.59 10.125c.334.94-.937 1.802-2.102 1.802H6.926c-1.165 0-2.437-.861-2.103-1.802l3.59-10.125c.334-.94.938-1.802 2.103-1.802z" fill="#282b24" paint-order="stroke fill markers"/><circle r="6.06" cy="279.141" cx="13.229" fill="#f1eedb" paint-order="stroke fill markers"/><path d="M11.502 283.76h3.455c.741 0 1.126.733 1.338 1.534l2.286 8.614c.213.8-.597 1.534-1.338 1.534H9.216c-.742 0-1.551-.733-1.339-1.534l2.286-8.614c.212-.8.597-1.534 1.339-1.534z" fill="#f1eedb" paint-order="stroke fill markers"/></g></svg>