<svg xmlns="http://www.w3.org/2000/svg" width="300" height="200" viewBox="0 0 79.375 52.917">
    <g transform="matrix(.951 0 0 .97316 -26.711 -95.451)" fill="#002b22">
        <path d="M38.743 98.256s3.463 42.679 58.17 41.563c-9.19-46.77-58.17-41.563-58.17-41.563z"/>
        <path d="M28.087 120.474s17.747 38.967 68.827 19.345c-24.523-40.872-68.827-19.345-68.827-19.345z"/>
        <rect transform="rotate(36.468)" ry="2.5" rx="1.25" y="73.794" x="131.178" height="16.036" width="4.811"/>
        <rect width="4.811" height="16.036" x="63.884" y="140.649" rx="1.25" ry="2.5" transform="rotate(-3.87)"/>
        <rect transform="rotate(-3.87)" ry="2.5" rx="1.25" y="140.3" x="71.371" height="16.036" width="4.811"/>
        <path d="M96.655 115.443s-9.672-3.37 3.096 23.906c28.25-30.683-3.096-23.906-3.096-23.906z"/>
        <path d="M99.596 104.7c1.914.196 2.721 1.617 1.258 4.098-1.951 3.31-4.115 7.155-2.588 11.005 1.062 2.678.008 3.83-1.907 3.636-1.915-.196-2.525-.773-3.127-3.59-.834-3.902.007-7.884 1.143-11.216.93-2.727 3.306-4.128 5.22-3.932z"/>
    </g>
</svg>
