<svg xmlns="http://www.w3.org/2000/svg" width="100.004" height="89.991" viewBox="0 0 26.459 23.81"><g transform="matrix(.23878 0 0 .23585 -6.12 -20.76)"><rect ry="2" rx="2" y="100.452" x="27.214" height="86.935" width="89.958" fill="#fff" stroke="#205" stroke-width="3.175"/><path d="M33.943 131.293h48.643M33.943 169.512h48.643" fill="none" stroke="#205" stroke-width="3.175"/><path d="M33.943 156.684h30.469M33.943 143.855h30.469" fill="none" stroke="#205" stroke-width="2.513"/><rect width="91.591" height="16.405" x="26.398" y="99.636" rx="2.036" ry=".377" fill="#205"/></g><path d="M26.46 15.953v-2.986h-9.036v-2.612l-4.97 4.105 4.97 4.106v-2.613z" fill="#205"/><path d="M9.803.157c-.265 0-.478.156-.478.349V3.3H3.584c-.265 0-.478.331-.478.743v1.219c0 .411.213.743.478.743h15.07c.265 0 .478-.332.478-.743v-1.22c0-.41-.213-.742-.477-.742h-6.267V.506c0-.193-.213-.349-.477-.349z" fill="#fff" stroke="#205" stroke-width=".31398255"/></svg>