<svg xmlns="http://www.w3.org/2000/svg" width="60" height="120" viewBox="0 0 15.875 31.75"><g transform="translate(0 -265.25)"><path d="M14.747 291.32l-2.498 5.262-3.253.03-8.608-6.35-.084-3.874h15.199z" fill="#e5d5ff"/><path fill="#95f" d="M15.487 291.32H.389v-25.682h15.098z"/><path d="M14.747 291.32l-2.346 5.292H8.996l-7.868-5.292c-.34-.229-.74-.325-.74-.728v-24.226c0-.403.33-.728.74-.728h13.619c.41 0 .74.325.74.728v24.226c0 .403-.33.728-.74.728z" fill="none" stroke="#205" stroke-width=".777"/><rect width="15.098" height="1.058" x="-15.487" y="-291.32" rx=".645" ry=".529" transform="scale(-1)" fill="#205"/><rect width="2.173" height="1.058" x="-13.689" y="-293.437" rx=".667" ry=".564" transform="scale(-1)" fill="#205"/><rect transform="scale(-1)" ry=".397" rx=".311" y="-293.304" x="-10.69" height=".794" width="7.276" fill="#205"/></g></svg>