<svg xmlns="http://www.w3.org/2000/svg" width="100" height="100" viewBox="0 0 26.458 26.458"><g fill="#205"><path d="M11.162.613c1.33-.817 3.4-.817 4.73 0 1.362.837 2.056 4.239 2.056 4.239H9.106S9.8 1.45 11.162.613zM22.677 3.846c1.48.522 2.741 2.108 2.881 3.627.143 1.554-2.224 4.158-2.224 4.158l-5.386-6.78s3.212-1.54 4.729-1.005zM4.377 3.846c-1.481.522-2.741 2.108-2.881 3.627C1.353 9.027 3.72 11.63 3.72 11.63l5.386-6.78s-3.212-1.54-4.729-1.005zM11.162 25.845c1.33.818 3.4.818 4.73 0 1.362-.837 2.056-4.239 2.056-4.239H9.106s.694 3.402 2.056 4.24zM22.677 22.612c1.48-.522 2.741-2.108 2.881-3.626.143-1.555-2.224-4.159-2.224-4.159l-5.386 6.78s3.212 1.54 4.729 1.005zM4.377 22.612c-1.481-.522-2.741-2.108-2.881-3.626-.143-1.555 2.224-4.159 2.224-4.159l5.386 6.78s-3.212 1.54-4.729 1.005z"/><path d="M.634 15.067c-.845-1.287-.845-3.287 0-4.573.866-1.317 4.384-1.988 4.384-1.988v8.549S1.5 16.384.634 15.067zM25.824 15.067c.846-1.287.846-3.287 0-4.573-.866-1.317-4.384-1.988-4.384-1.988v8.549s3.518-.671 4.384-1.988z"/><path d="M13.677 3.658a9.831 9.63 0 0 0-9.832 9.63 9.831 9.63 0 0 0 9.832 9.63 9.831 9.63 0 0 0 9.831-9.63 9.831 9.63 0 0 0-9.831-9.63zm0 4.728a5.005 4.902 0 0 1 5.004 4.902 5.005 4.902 0 0 1-5.004 4.902 5.005 4.902 0 0 1-5.005-4.902 5.005 4.902 0 0 1 5.005-4.902z"/></g></svg>