<svg xmlns="http://www.w3.org/2000/svg" width="100" height="85" viewBox="0 0 26.458 22.49"><g transform="matrix(.97034 0 0 .98533 .061 -270.939)"><circle cx="13.764" cy="287.245" r="10.023" transform="translate(-.194)" fill="none" stroke="#333" stroke-width="1.058"/><g fill="#333"><path d="M12.506 280.054h1.326v8.784h-1.326z"/><path d="M18.36 287.512v1.326h-5.854v-1.326z"/></g><path d="M1.35 283.207a4.824 4.824 0 0 1-1.249-4.66 4.824 4.824 0 0 1 3.411-3.41 4.824 4.824 0 0 1 4.66 1.248l-3.411 3.411zM25.79 283.207a4.824 4.824 0 0 0 1.25-4.66 4.824 4.824 0 0 0-3.412-3.41 4.824 4.824 0 0 0-4.66 1.248l3.412 3.411z" fill="#333"/></g></svg>