<svg xmlns="http://www.w3.org/2000/svg" width="100" height="100" viewBox="0 0 26.458 26.458"><path d="M7.872 5.292c-.697 0-1.257.61-1.257 1.366V19.8c0 .757.56 1.367 1.257 1.367H18.806c.575 0 1.038-.428 1.038-.96 0-.405-.271-.748-.654-.888V17.21h.102c.28 0 .506-.247.506-.552V6.25c0-.53-.46-.958-1.033-.958H15.472zM10.94 9.44h4.578c.277 0 .5.184.5.412 0 .228-.223.412-.5.412H10.94c-.277 0-.5-.184-.5-.412 0-.228.223-.412.5-.412zm0 1.285h4.578c.277 0 .5.184.5.412 0 .228-.223.412-.5.412H10.94c-.277 0-.5-.184-.5-.412 0-.228.223-.412.5-.412zm-1.368 6.513H17.526V19.1H9.572c-.59 0-1.064-.415-1.064-.932 0-.516.474-.931 1.064-.931z" fill="#49e8df" paint-order="stroke fill markers"/></svg>