<svg xmlns="http://www.w3.org/2000/svg" width="100" height="100" viewBox="0 0 26.458 26.458"><g fill="#49e8df"><path d="M6.716 10.491c-.789 0-1.424.622-1.424 1.394v6.767c0 .772.635 1.394 1.424 1.394h.814c.789 0 1.424-.622 1.424-1.394v-6.767c0-.772-.635-1.394-1.424-1.394zm.407 7.106a.814.796 0 0 1 .814.796.814.796 0 0 1-.814.796.814.796 0 0 1-.814-.796.814.796 0 0 1 .814-.796z" paint-order="stroke fill markers"/><path d="M9.46 19.191v-7.846s2.544-.794 2.79-2.616c.244-1.822 1.052-2.322 1.052-2.322s2.653-1.977 2.653 2.32c0 2.267-1.19 1.525-1.19 1.525h5.138s2.646 1.352.281 2.915c0 0 1.89 1.207-.306 2.586 0 0 1.87 1.23-.395 2.594 0 0 1.018.948-1.813 1.963-1.377.4-3.43.12-5.138-.26-1.708-.379-3.072-.859-3.072-.859z"/></g></svg>