<svg xmlns="http://www.w3.org/2000/svg" width="100" height="100" viewBox="0 0 26.458 26.458"><g stroke="#000" stroke-width=".265" stroke-linecap="round"><path d="M5.078 280.48l7.083-.229 7.082.23v.695l-7.082-.23-7.083.23z" fill="#0f0" paint-order="stroke fill markers" transform="matrix(1.4599 0 0 1.4798 -4.524 -411.872)"/><path d="M5.078 281.176l7.083-.23 7.082.23v.696l-7.082-.23-7.083.23z" fill="#fff" paint-order="stroke fill markers" transform="matrix(1.4599 0 0 1.4798 -4.524 -411.872)"/><path d="M5.078 281.872l7.083-.23 7.082.23v.695l-7.082-.23-7.083.23z" fill="red" paint-order="stroke fill markers" transform="matrix(1.4599 0 0 1.4798 -4.524 -411.872)"/><path d="M5.078 282.567c1.265 5.23 2.558 10.427 7.083 11.718 4.525-1.291 5.818-6.488 7.082-11.718l-7.082-.236z" fill="#ffee02" paint-order="stroke fill markers" transform="matrix(1.4599 0 0 1.4798 -4.524 -411.872)"/></g><path d="M12.67 7.587s-1.818.58-1.939 1.51c0 0 1.615 0 1.535.522-.081.522-.525 2.148-.768 2.38-.242.233-.646-2.032-1.09-1.103-.444.93-.848 1.916-.565 2.032.282.116.444-1.567.726-1.393.283.174.768 1.277.768 1.277s-1.131-1.51-1.131-.87c0 .638.04 2.148.444 2.09.404-.059-.323-1.684-.04-1.278.283.407.525.349 1.01 1.103.484.755.807.984.484 1.681-.323.697-.242 1.742-.04 2.09.202.349-1.454.058-1.858.349-.404.29-.08.406.242.406.323 0 2.14.406 2.181-.29.04-.697-.161-.987-.161-.987s.626 1.306.646 1.538c.02.233-1.353 1.22-1.131 1.771.222.552 1.736-1.161 1.736-1.51 0-.348-.666-1.015-.464-1.538.202-.523 2.262-1.071 1.817-2.61-.444-1.538-2.22-3.251-1.676-4.616.546-1.364-.08-2.99-.727-2.554z"/><path d="M12.124 7.76s.04-.26.04-.435c0-.174.505.262.505.262z"/><path d="M12.577 7.76s.04-.26.04-.435c0-.174.505.262.505.262zM13.366 7.906s.646.363.788.32c0 0-.707.362-.869.696-.161.334.081-1.016.081-1.016z"/><path d="M13.366 8.385s.646.363.788.32c0 0-.707.362-.869.696-.161.334.081-1.016.081-1.016z"/><path d="M13.592 8.857s.415.8.55.87c0 0-.733-.23-.993-.07s.443-.8.443-.8z"/><path d="M13.592 9.35s.415.8.55.871c0 0-.733-.23-.993-.07s.443-.8.443-.8z"/><path d="M13.31 9.815s.414.8.55.87c0 0-.733-.23-.993-.07s.443-.8.443-.8z"/><path d="M13.399 10.326s.414.8.55.87c0 0-.733-.23-.993-.07s.443-.8.443-.8zM14.7 15.857s.149-4.074 1.485-4.131c1.337-.058-.297-.574-.346 1.606-.05 2.181-1.139 2.525-1.139 2.525z"/><path d="M14.7 15.857S14.85 13 16.185 12.96c1.337-.04-.297-.402-.346 1.127-.05 1.529-1.139 1.77-1.139 1.77z"/><path d="M14.7 15.215s.105 1.972 1.046 2c.942.027-.209.277-.244-.778-.035-1.056-.802-1.222-.802-1.222z"/></svg>