<?xml version="1.0" encoding="UTF-8" standalone="no"?>
<svg
   xmlns:dc="http://purl.org/dc/elements/1.1/"
   xmlns:cc="http://creativecommons.org/ns#"
   xmlns:rdf="http://www.w3.org/1999/02/22-rdf-syntax-ns#"
   xmlns:svg="http://www.w3.org/2000/svg"
   xmlns="http://www.w3.org/2000/svg"
   xmlns:sodipodi="http://sodipodi.sourceforge.net/DTD/sodipodi-0.dtd"
   xmlns:inkscape="http://www.inkscape.org/namespaces/inkscape"
   width="100"
   height="100"
   viewBox="0 0 26.458 26.458"
   version="1.1"
   id="svg32"
   sodipodi:docname="ferrari-icon.svg"
   inkscape:version="0.92.3 (2405546, 2018-03-11)">
  <metadata
     id="metadata38">
    <rdf:RDF>
      <cc:Work
         rdf:about="">
        <dc:format>image/svg+xml</dc:format>
        <dc:type
           rdf:resource="http://purl.org/dc/dcmitype/StillImage" />
      </cc:Work>
    </rdf:RDF>
  </metadata>
  <defs
     id="defs36" />
  <sodipodi:namedview
     pagecolor="#ffffff"
     bordercolor="#666666"
     borderopacity="1"
     objecttolerance="10"
     gridtolerance="10"
     guidetolerance="10"
     inkscape:pageopacity="0"
     inkscape:pageshadow="2"
     inkscape:window-width="1366"
     inkscape:window-height="705"
     id="namedview34"
     showgrid="false"
     showguides="false"
     inkscape:zoom="2.8284271"
     inkscape:cx="68.449601"
     inkscape:cy="49.92916"
     inkscape:window-x="-8"
     inkscape:window-y="-8"
     inkscape:window-maximized="1"
     inkscape:current-layer="g996">
    <sodipodi:guide
       position="14.348569,26.398196"
       orientation="0,1"
       id="guide849"
       inkscape:locked="false" />
  </sodipodi:namedview>
  <g
     id="g996"
     transform="matrix(0.91161166,0,0,1.0606092,1.1692894,-0.24053955)">
    <g
       id="g1019">
      <g
         transform="matrix(1.0283984,0,0,1.0775478,-0.37568281,-1.5550656)"
         id="g973">
        <path
           sodipodi:nodetypes="ccccc"
           d="M 2.6458,5.516582 C 4.6385952,13.499995 5.5273196,20.518633 12.655698,22.4893 19.784076,20.518633 21.82098,13.499995 23.812201,5.516582 L 12.604934,5.3754112 Z"
           id="path8"
           inkscape:connector-curvature="0"
           style="fill:#0f0e00;fill-opacity:1;stroke:none;stroke-width:0.41093713;stroke-linecap:round;paint-order:stroke fill markers" />
        <path
           style="fill:#ffee02;stroke:none;stroke-width:0.39868131;stroke-linecap:round;paint-order:stroke fill markers"
           inkscape:connector-curvature="0"
           id="path853"
           d="M 2.9614355,5.7678126 C 4.8947975,13.513127 5.7570165,20.322441 12.672797,22.234336 19.588579,20.322441 21.564735,13.513127 23.496569,5.7678126 L 12.623548,5.6308522 Z"
           sodipodi:nodetypes="ccccc" />
      </g>
      <g
         transform="matrix(1.0283984,0,0,1.0775478,0.46853311,-2.5054366)"
         id="g961">
        <path
           style="stroke-width:0.99189585"
           id="path12"
           d="m 12.082672,7.7123642 c 0,0 -1.860807,0.5575102 -1.984656,1.451449 0,0 1.653027,0 1.571143,0.5017592 -0.08291,0.5017596 -0.537361,2.0647106 -0.786083,2.2877146 -0.247698,0.223965 -0.661211,-1.953209 -1.1156649,-1.060231 -0.4544544,0.893939 -0.8679669,1.841706 -0.5783035,1.953208 0.28864,0.111502 0.4544544,-1.506239 0.7430944,-1.338986 0.289663,0.167254 0.786083,1.227484 0.786083,1.227484 0,0 -1.1576302,-1.451449 -1.1576302,-0.836265 0,0.613261 0.040942,2.06471 0.4544542,2.008959 0.413513,-0.05671 -0.3306051,-1.618702 -0.040942,-1.228445 0.289664,0.391219 0.537362,0.335467 1.033782,1.060231 0.495396,0.725724 0.826001,0.945845 0.495396,1.615818 -0.330605,0.669974 -0.247698,1.674453 -0.04094,2.008959 0.206756,0.335468 -1.488236,0.05575 -1.9017485,0.335468 -0.4135125,0.278755 -0.081884,0.390257 0.2476981,0.390257 0.3306054,0 2.1903884,0.390257 2.2323544,-0.278755 0.04094,-0.669974 -0.164791,-0.948729 -0.164791,-0.948729 0,0 0.640739,1.255359 0.66121,1.478363 0.02047,0.223966 -1.384857,1.172694 -1.15763,1.702329 0.227227,0.530596 1.776876,-1.115982 1.776876,-1.451449 0,-0.334506 -0.681682,-0.975643 -0.474926,-1.478363 0.206757,-0.502721 2.315261,-1.029472 1.859783,-2.508796 -0.454454,-1.478363 -2.272272,-3.124941 -1.715463,-4.437012 0.558856,-1.3111107 -0.08188,-2.8740617 -0.744118,-2.4549678 z"
           inkscape:connector-curvature="0" />
        <path
           style="stroke-width:0.68005741"
           inkscape:connector-curvature="0"
           id="path14"
           d="m 11.692164,7.8659295 c 0,0 0.04094,-0.1174781 0.04094,-0.19655 0,-0.078619 0.516891,0.1183819 0.516891,0.1183819 z" />
        <path
           style="stroke-width:0.99189585"
           id="path16"
           d="m 11.987482,7.878656 c 0,0 0.04094,-0.2499183 0.04094,-0.4181326 0,-0.1672531 0.516891,0.2518408 0.516891,0.2518408 z m 0.807578,0.1403388 c 0,0 0.661211,0.3489245 0.806554,0.3075918 0,0 -0.723647,0.3479633 -0.889461,0.6690123 -0.164791,0.321049 0.08291,-0.9766041 0.08291,-0.9766041 z"
           inkscape:connector-curvature="0" />
        <path
           style="stroke-width:0.99189585"
           id="path18"
           d="m 12.79506,8.4794213 c 0,0 0.661211,0.3489245 0.806554,0.3075919 0,0 -0.723647,0.3479632 -0.889461,0.6690122 -0.164791,0.321049 0.08291,-0.9766041 0.08291,-0.9766041 z"
           inkscape:connector-curvature="0" />
        <path
           style="stroke-width:0.99189585"
           id="path20"
           d="m 13.026381,8.9331193 c 0,0 0.424772,0.7689796 0.56295,0.8362653 0,0 -0.750259,-0.2210816 -1.016381,-0.067286 -0.266122,0.1537959 0.453431,-0.7689796 0.453431,-0.7689793 z"
           inkscape:connector-curvature="0" />
        <path
           style="stroke-width:0.99189585"
           id="path22"
           d="m 13.026381,9.407003 c 0,0 0.424772,0.76898 0.56295,0.837227 0,0 -0.750259,-0.221082 -1.016381,-0.06729 -0.266122,0.153796 0.453431,-0.7689798 0.453431,-0.7689798 z"
           inkscape:connector-curvature="0" />
        <path
           style="stroke-width:0.99189585"
           id="path24"
           d="m 12.737741,9.8539724 c 0,0 0.423748,0.7689796 0.562951,0.8362656 0,0 -0.75026,-0.221082 -1.016382,-0.06729 -0.266121,0.153796 0.453431,-0.7689796 0.453431,-0.7689796 z"
           inkscape:connector-curvature="0" />
        <path
           style="stroke-width:0.99189585"
           id="path26"
           d="m 12.828837,10.345158 c 0,0 0.423748,0.76898 0.56295,0.836265 0,0 -0.750259,-0.221081 -1.016381,-0.06729 -0.266122,0.153796 0.453431,-0.76898 0.453431,-0.76898 z m 1.331633,5.316533 c 0,0 0.152508,-3.916029 1.519966,-3.970819 1.368481,-0.05575 -0.303993,-0.551742 -0.354147,1.543727 -0.05118,2.096431 -1.165819,2.427092 -1.165819,2.427092 z"
           inkscape:connector-curvature="0" />
        <path
           style="stroke-width:0.99189585"
           id="path28"
           d="m 14.16047,15.661691 c 0,0 0.153532,-2.746219 1.519966,-2.784668 1.368481,-0.03845 -0.303993,-0.386412 -0.354147,1.0833 -0.05118,1.469713 -1.165819,1.701368 -1.165819,1.701368 z"
           inkscape:connector-curvature="0" />
        <path
           style="stroke-width:0.99189585"
           id="path30"
           d="m 14.16047,15.044585 c 0,0 0.107472,1.895534 1.070629,1.922449 0.96418,0.02595 -0.213921,0.266259 -0.249745,-0.747833 -0.03582,-1.015053 -0.820884,-1.174616 -0.820884,-1.174616 z"
           inkscape:connector-curvature="0" />
      </g>
      <g
         transform="matrix(1.0283984,0,0,1.0775478,-0.37568281,-1.5550656)"
         id="g969">
        <path
           d="M 2.6458,5.0518831 13.229748,4.8980979 23.812201,5.0518831 V 5.516582 L 13.229748,5.3627967 2.6458,5.516582 Z"
           id="path6"
           inkscape:connector-curvature="0"
           style="fill:#000000;stroke:none;stroke-width:0.26488325;stroke-linecap:round;paint-order:stroke fill markers" />
        <path
           style="fill:#db2b34;fill-opacity:1;stroke:none;stroke-width:0.25181049;stroke-linecap:round;paint-order:stroke fill markers"
           inkscape:connector-curvature="0"
           id="path855"
           d="M 2.8670358,5.1530993 13.181855,5.0104928 23.495219,5.1530993 V 5.5840189 L 13.181855,5.4414124 2.8670358,5.5840189 Z" />
        <path
           style="fill:#000000;stroke:none;stroke-width:0.26488325;stroke-linecap:round;paint-order:stroke fill markers"
           inkscape:connector-curvature="0"
           id="path857"
           d="M 2.6458,4.5871842 13.229748,4.433399 23.812201,4.5871842 V 5.0518831 L 13.229748,4.8980979 2.6458,5.0518831 Z" />
        <path
           d="M 2.8670358,4.6884004 13.181855,4.5457939 23.495219,4.6884004 V 5.11932 L 13.181855,4.9767135 2.8670358,5.11932 Z"
           id="path859"
           inkscape:connector-curvature="0"
           style="fill:#ffffff;stroke:none;stroke-width:0.25181049;stroke-linecap:round;paint-order:stroke fill markers" />
        <path
           d="M 2.6458,4.1224853 13.229748,3.9687001 23.812201,4.1224853 V 4.5871842 L 13.229748,4.433399 2.6458,4.5871842 Z"
           id="path861"
           inkscape:connector-curvature="0"
           style="fill:#000000;stroke:none;stroke-width:0.26488325;stroke-linecap:round;paint-order:stroke fill markers" />
        <path
           style="fill:#409864;fill-opacity:1;stroke:none;stroke-width:0.25181049;stroke-linecap:round;paint-order:stroke fill markers"
           inkscape:connector-curvature="0"
           id="path863"
           d="M 2.8670358,4.2237015 13.181855,4.081095 23.495219,4.2237015 V 4.6546211 L 13.181855,4.5120146 2.8670358,4.6546211 Z" />
      </g>
    </g>
  </g>
</svg>
