<svg xmlns="http://www.w3.org/2000/svg" width="100" height="100" viewBox="0 0 26.458 26.458"><g fill="none" stroke="#e10600" stroke-width="1.058" stroke-linecap="round" paint-order="stroke fill markers"><path d="M9.327 273.299c-.733 0-1.323.66-1.323 1.482 0 .547.263 1.021.654 1.278l.495 5.62H8.95c-1.465 0-2.646.794-2.646 1.78s1.18 1.78 2.646 1.78h7.426c1.466 0 2.646-.794 2.646-1.78s-1.18-1.78-2.646-1.78h-.204l.495-5.62c.392-.257.654-.731.654-1.278 0-.821-.59-1.482-1.323-1.482z" transform="matrix(.96054 0 0 1.03222 1.066 -278.913)"/><path d="M11.627 285.213h2.053c.403 0 .838.372.727.797l-1.754 6.73c0 .22-1.753-6.73-1.753-6.73 0-.441.324-.797.727-.797z" transform="matrix(.96054 0 0 1.03222 1.066 -278.913)"/></g></svg>