<svg xmlns="http://www.w3.org/2000/svg" width="100" height="100" viewBox="0 0 26.458 26.458"><g transform="translate(-.121 -270.542)"><ellipse ry="5.027" rx="5.076" cy="283.771" cx="13.229" fill="#fbd906" paint-order="stroke fill markers"/><g fill="#e72029"><path d="M14.071 285.083s.168-2.066.588-2.232c.42-.165 1.679-1.818 2.77-1.487 1.091.33 4.868 1.405 4.868 1.9 0 .497.115 1.65.367 1.981.697.36.934.334 1.018.665.084.33.251.912.251.912-.625.291-2.307-.664-2.56-1.16-.251-.496-3.234-.95-3.234-.95s.547 1.408.21 1.446c-1.093.12-1.64.136-1.595-.331a1.369 1.369 0 0 0-.17-.825s.248-.257 0 0c-.25.258-.414.99-.75.99-.671 0-1.763-.909-1.763-.909z"/><path d="M21.89 283.551s1.072.28.982-.038c-.09-.318-.839-2.375-.217-2.537.621-.162 1.298-.054.95.162-.347.216-.564.042-.73.486.017.378.842 2.11.474 2.377-.686.316-1.462-.018-1.462-.018zM14.314 284.554s-.42.768-.316.916c.104.149.328.154.457.092.128-.062.423-.826.404-.93-.019-.105-.545-.078-.545-.078z"/><g><path d="M12.629 285.083s-.168-2.066-.588-2.232c-.42-.165-1.678-1.818-2.77-1.487-1.09.33-4.868 1.405-4.868 1.9 0 .497-.115 1.65-.367 1.981-.697.36-.933.334-1.017.665-.084.33-.252.912-.252.912.626.291 2.308-.664 2.56-1.16.251-.496 3.234-.95 3.234-.95s-.547 1.408-.21 1.446c1.093.12 1.64.136 1.595-.331-.047-.494.17-.825.17-.825s-.248-.257 0 0c.25.258.414.99.75.99.672 0 1.763-.909 1.763-.909z"/><path d="M4.81 283.551s-1.072.28-.982-.038c.09-.318.84-2.375.218-2.537-.622-.162-1.298-.054-.951.162.347.216.565.042.731.486-.018.378-.842 2.11-.475 2.377.686.316 1.462-.018 1.462-.018zM12.387 284.554s.42.768.316.916c-.104.149-.329.154-.458.092-.128-.062-.423-.826-.404-.93.02-.105.546-.078.546-.078z"/></g></g></g></svg>