<svg xmlns="http://www.w3.org/2000/svg" width="100" height="100" viewBox="0 0 26.458 26.458"><g transform="translate(-.121 -270.542)"><ellipse ry="5.027" rx="5.076" cy="283.771" cx="13.229" fill="none" stroke="#1d1897" stroke-width=".529" stroke-linecap="round" paint-order="stroke fill markers"/><g fill="#1d1897"><path d="M17.223 281.324c-1.04-.09-2.17 1.373-2.564 1.527-.413.163-.58 2.148-.585 2.211-.07.177-.12.347-.076.408.104.149.328.154.457.092.027-.013.063-.062.1-.126.377.258.889.556 1.28.556.335 0 .5-.732.749-.99 0 0 .217.331.17.825-.044.467.502.451 1.595.33.337-.036-.21-1.446-.21-1.446s2.983.455 3.235.95c.252.497 1.934 1.453 2.56 1.161 0 0-.168-.582-.252-.912-.084-.33-.32-.305-1.018-.665-.252-.33-.367-1.484-.367-1.98s-3.777-1.57-4.868-1.901a1.01 1.01 0 0 0-.206-.04z"/><path d="M21.89 283.551s1.072.28.982-.038c-.09-.318-.839-2.375-.217-2.537.621-.162 1.298-.054.95.162-.347.216-.564.042-.73.486.017.378.842 2.11.474 2.377-.686.316-1.462-.018-1.462-.018z"/><g><path d="M9.477 281.324a1.01 1.01 0 0 0-.206.04c-1.09.33-4.868 1.405-4.868 1.9 0 .497-.115 1.65-.367 1.981-.697.36-.934.334-1.018.665-.083.33-.251.912-.251.912.626.292 2.308-.664 2.56-1.16.251-.496 3.234-.95 3.234-.95s-.547 1.409-.21 1.446c1.093.12 1.64.136 1.595-.331-.047-.494.17-.825.17-.825.25.258.414.99.75.99.39 0 .902-.298 1.279-.556.038.064.073.113.1.126.129.062.354.057.458-.092.043-.061-.006-.231-.076-.408-.006-.063-.173-2.048-.586-2.21-.393-.155-1.525-1.618-2.564-1.528z"/><path d="M4.81 283.551s-1.072.28-.982-.038c.09-.318.84-2.375.218-2.537-.622-.162-1.298-.054-.951.162.347.216.565.042.731.486-.018.378-.842 2.11-.475 2.377.686.316 1.462-.018 1.462-.018z"/></g></g></g></svg>